<?xml version="1.0" standalone="no"?>
<!DOCTYPE svg PUBLIC "-//W3C//DTD SVG 20010904//EN"
 "http://www.w3.org/TR/2001/REC-SVG-20010904/DTD/svg10.dtd">
<svg version="1.0" xmlns="http://www.w3.org/2000/svg"
 width="1280.000000pt" height="1280.000000pt" viewBox="0 0 1280.000000 1280.000000"
 preserveAspectRatio="xMidYMid meet">

<g transform="translate(0.000000,1280.000000) scale(0.100000,-0.100000)"
fill="#000000" stroke="none">
<path d="M3280 11280 l0 -150 155 0 155 0 0 150 0 150 -155 0 -155 0 0 -150z"/>
<path d="M3770 11280 l0 -150 155 0 155 0 0 150 0 150 -155 0 -155 0 0 -150z"/>
<path d="M2280 11015 c-176 -50 -286 -167 -337 -355 -16 -59 -18 -128 -18
-770 0 -776 -1 -767 62 -899 82 -173 231 -255 463 -255 236 -1 388 85 469 265
48 107 55 156 55 384 l1 210 -167 3 -167 2 -3 -207 c-3 -184 -5 -213 -23 -248
-54 -109 -248 -112 -310 -5 -20 34 -20 51 -20 746 l0 710 27 41 c33 50 80 73
150 73 69 0 124 -31 152 -85 18 -35 21 -61 24 -207 l4 -168 170 0 171 0 -6
178 c-3 113 -11 199 -21 237 -50 186 -165 304 -341 351 -63 17 -274 17 -335
-1z"/>
<path d="M640 9886 l0 -1126 314 0 c351 0 428 9 531 60 103 51 163 118 211
235 27 68 28 77 32 281 2 116 -1 240 -6 275 -23 143 -91 257 -190 314 -28 17
-51 32 -51 35 0 3 21 19 46 35 54 36 115 119 137 187 38 118 45 349 16 488
-17 75 -75 184 -121 223 -21 18 -59 44 -86 57 -96 48 -137 52 -495 57 l-338 5
0 -1126z m621 777 c63 -36 74 -69 77 -243 3 -100 0 -168 -8 -194 -29 -98 -90
-131 -240 -131 l-95 0 -3 285 c-1 157 0 291 3 299 9 22 223 10 266 -16z m16
-916 c48 -26 82 -77 94 -142 6 -32 9 -134 7 -229 -4 -204 -14 -236 -88 -273
-39 -20 -59 -23 -172 -23 l-128 0 0 346 0 346 128 -4 c95 -3 135 -8 159 -21z"/>
<path d="M3200 9885 l0 -1125 480 0 480 0 0 160 0 160 -305 0 -305 0 0 330 0
330 245 0 245 0 0 160 0 160 -245 0 -245 0 2 313 3 312 303 3 302 2 0 160 0
160 -480 0 -480 0 0 -1125z"/>
<path d="M4880 9885 l0 -1125 180 0 180 0 0 480 0 480 200 0 200 0 0 -480 0
-480 180 0 180 0 0 1125 0 1125 -180 0 -180 0 -2 -482 -3 -483 -197 -3 -198
-2 -2 482 -3 483 -177 3 -178 2 0 -1125z"/>
<path d="M6525 10998 c-2 -7 -13 -74 -25 -148 -12 -74 -32 -202 -45 -285 -33
-204 -63 -388 -161 -1005 -13 -85 -33 -209 -44 -275 -47 -284 -80 -497 -80
-510 0 -13 26 -15 159 -15 l159 0 6 28 c5 24 56 368 56 378 0 2 98 3 217 2
l218 -3 11 -70 c7 -38 20 -130 30 -202 l17 -133 179 0 c98 0 178 2 178 4 0 12
-159 1015 -200 1261 -28 168 -107 664 -131 820 -10 72 -22 138 -25 148 -5 16
-26 17 -260 17 -195 0 -256 -3 -259 -12z m270 -579 c13 -85 38 -248 55 -364
17 -115 42 -282 56 -371 13 -88 24 -172 24 -187 l0 -27 -165 0 c-130 0 -165 3
-165 13 0 7 11 90 25 183 14 93 37 243 50 334 27 181 72 483 82 543 3 21 7 36
10 34 2 -3 14 -74 28 -158z"/>
<path d="M8070 9885 l0 -1125 175 0 175 0 0 340 0 341 56 105 c31 58 58 103
60 101 2 -2 31 -75 64 -163 231 -605 269 -704 275 -714 4 -6 83 -10 185 -10
l179 0 -13 38 c-8 20 -61 156 -119 302 -58 146 -135 342 -172 435 -37 94 -93
238 -126 320 l-60 151 226 459 c125 253 235 479 246 503 l18 42 -179 0 c-103
0 -180 -4 -180 -9 0 -5 -67 -150 -148 -323 -82 -172 -182 -384 -223 -470 -41
-87 -77 -158 -81 -158 -5 0 -8 216 -8 480 l0 480 -175 0 -175 0 0 -1125z"/>
<path d="M9410 9885 l0 -1125 175 0 175 0 2 963 3 962 198 3 197 2 0 -965 0
-965 180 0 180 0 0 1125 0 1125 -555 0 -555 0 0 -1125z"/>
<path d="M10780 9885 l0 -1125 180 0 180 0 0 965 0 965 198 -2 197 -3 3 -962
2 -963 180 0 180 0 0 1125 0 1125 -560 0 -560 0 0 -1125z"/>
<path d="M6340 7046 c0 -22 34 -76 48 -76 6 0 12 -6 12 -12 0 -7 16 -25 34
-40 19 -16 41 -40 48 -55 8 -17 25 -32 46 -38 21 -6 32 -15 32 -27 0 -10 4
-18 9 -18 5 0 11 -8 15 -17 7 -23 28 -56 40 -65 6 -4 4 -13 -3 -22 -7 -9 -11
-22 -8 -30 10 -26 -17 -35 -104 -37 -162 -3 -218 -19 -204 -57 3 -7 1 -111 -5
-230 -5 -119 -12 -314 -15 -432 -11 -408 -25 -835 -30 -900 -2 -36 -7 -229
-10 -430 -5 -349 -13 -550 -36 -980 -9 -183 -29 -804 -32 -1041 -1 -77 2 -111
12 -123 10 -12 11 -23 3 -43 -6 -16 -13 -44 -15 -63 -6 -39 -73 -150 -92 -150
-7 0 -26 -7 -42 -15 -28 -14 -36 -14 -89 2 -33 9 -81 16 -109 15 -63 -2 -147
16 -142 32 7 23 110 30 186 13 l72 -17 44 37 c24 20 46 44 48 54 6 23 -17 43
-42 36 -33 -8 -51 11 -51 54 0 21 -5 48 -12 59 -10 15 -9 22 6 39 11 12 15 27
11 39 -4 14 1 25 17 37 23 16 23 16 4 30 -11 8 -25 15 -32 15 -6 0 -17 7 -24
15 -14 17 -66 20 -76 4 -3 -6 -24 -19 -46 -29 l-40 -18 33 -7 c19 -4 43 -12
53 -18 19 -9 19 -11 -9 -32 l-28 -23 22 -27 c11 -15 21 -33 21 -40 0 -7 7 -18
15 -25 20 -17 13 -25 -52 -56 -68 -31 -168 -43 -195 -22 -22 17 -36 180 -20
226 10 29 8 33 -25 58 -33 25 -38 26 -67 14 -17 -7 -76 -18 -131 -25 -109 -13
-113 -12 -158 43 -24 29 -45 28 -81 -5 -27 -23 -28 -27 -14 -37 14 -10 16 -27
13 -96 -3 -53 0 -89 7 -97 15 -19 4 -27 -67 -52 -54 -19 -65 -20 -110 -9 -54
14 -55 16 -54 113 1 87 5 142 12 153 6 9 -1 16 -22 23 -17 6 -31 15 -31 20 0
13 -37 30 -54 23 -8 -3 -22 -17 -31 -31 -16 -24 -16 -26 4 -44 26 -25 26 -35
1 -51 -25 -16 -25 -26 0 -58 26 -33 25 -59 -3 -93 -20 -26 -30 -29 -97 -34
-93 -7 -103 2 -106 90 -2 34 -6 79 -10 99 -5 30 -3 39 10 44 19 7 22 34 4 34
-7 0 -24 9 -38 20 -32 25 -62 25 -85 0 -16 -17 -31 -20 -110 -20 -77 0 -94 3
-113 20 -28 26 -56 25 -75 -3 -14 -22 -19 -23 -109 -19 -71 4 -99 9 -117 23
-23 18 -25 19 -44 2 -17 -16 -41 -18 -178 -18 -115 -1 -162 -4 -171 -14 -11
-10 -10 -14 5 -22 23 -13 22 -36 -3 -49 -21 -11 -21 -11 -1 -36 18 -23 19 -53
2 -55 -3 0 -45 -2 -93 -4 -65 -2 -90 0 -99 11 -15 18 -4 45 21 51 27 7 25 17
-5 31 -54 25 -11 55 82 57 94 2 85 11 -17 18 -50 4 -100 12 -111 18 -15 7 -30
7 -57 -2 -56 -19 -203 -15 -240 6 -28 17 -30 17 -58 -4 -17 -12 -45 -23 -64
-25 -43 -4 -55 -20 -17 -24 33 -4 53 -32 62 -87 5 -36 2 -46 -24 -79 -22 -28
-31 -49 -31 -76 0 -31 -4 -39 -24 -44 -34 -8 -86 12 -86 34 0 10 8 21 17 25
16 6 16 8 -3 23 -12 9 -25 31 -29 47 -17 77 -17 90 4 114 l21 24 -46 45 c-63
60 -76 48 -77 -72 -1 -84 -2 -87 -26 -93 -15 -3 -36 -14 -47 -25 -28 -25 -77
-21 -82 7 -3 11 -13 28 -23 38 -23 22 -24 39 -3 79 15 28 15 32 0 40 -9 5 -23
22 -31 38 -20 39 -50 39 -64 0 -10 -30 -43 -42 -56 -20 -3 6 -37 10 -74 10
-49 0 -72 4 -81 15 -17 21 -36 19 -53 -5 -13 -19 -19 -20 -88 -10 -40 6 -81
18 -91 27 -17 15 -20 15 -43 -7 -21 -20 -31 -22 -84 -17 -38 3 -71 13 -90 26
-16 12 -36 18 -45 15 -20 -8 -16 6 -25 -102 -7 -81 -11 -96 -34 -120 -33 -34
-34 -56 -5 -76 24 -17 24 -17 -15 -34 -34 -15 -62 -15 -87 -2 -16 9 -17 15 -8
40 8 23 7 35 -4 53 -25 37 -30 112 -11 159 l16 41 -27 24 c-41 35 -78 28 -92
-17 -9 -28 -9 -43 3 -72 14 -35 14 -40 -4 -70 -25 -45 -81 -72 -125 -60 -29 7
-34 13 -40 51 -4 23 -3 53 2 67 18 48 12 92 -15 110 -36 24 -75 12 -75 -24 0
-15 -4 -33 -9 -40 -4 -7 -3 -31 3 -53 10 -37 8 -41 -24 -74 -31 -32 -39 -35
-91 -35 l-57 0 -4 50 c-1 28 1 51 6 53 5 2 12 25 16 51 6 41 4 52 -11 67 -32
32 -79 21 -79 -18 0 -13 -4 -33 -10 -43 -12 -22 -3 -50 16 -50 8 0 14 -10 14
-25 0 -19 -9 -29 -39 -44 -25 -13 -43 -31 -49 -50 -13 -36 -12 -37 53 -46 28
-4 61 -12 75 -17 24 -9 24 -10 6 -24 -11 -8 -32 -14 -47 -14 -15 0 -39 -4 -53
-10 -18 -6 -35 -5 -58 4 -18 7 -41 16 -52 20 -18 6 -18 7 -1 25 17 19 14 51
-6 77 -5 6 -16 30 -24 54 -14 39 -14 44 2 55 12 9 17 24 15 48 -3 25 1 36 14
41 16 6 14 9 -8 20 -15 8 -40 17 -57 21 -24 5 -32 2 -41 -15 -12 -22 -9 -85 4
-125 7 -20 0 -30 -62 -88 -14 -13 -27 -16 -46 -11 l-27 6 3 -63 c3 -63 3 -63
38 -72 19 -5 44 -17 55 -27 29 -27 201 -33 220 -7 16 22 27 21 57 -2 20 -16
49 -20 171 -26 99 -5 150 -12 157 -20 6 -8 10 -45 8 -87 l-3 -73 -40 -3 c-90
-5 -104 -11 -119 -47 -10 -23 -26 -39 -48 -48 -33 -13 -33 -14 -10 -26 12 -6
22 -16 22 -21 0 -15 -54 -12 -86 5 -20 10 -23 15 -11 15 28 0 19 18 -12 25
-43 9 -57 29 -43 61 7 13 22 28 34 33 28 10 11 17 -66 26 -54 7 -59 6 -87 -21
-16 -15 -29 -31 -29 -35 0 -4 -21 -43 -46 -88 -32 -58 -52 -83 -70 -87 -32 -8
-30 -29 6 -56 30 -22 30 -23 30 -118 0 -61 4 -100 12 -108 8 -8 46 -12 106
-12 54 0 103 -5 115 -12 12 -7 47 -11 78 -9 54 2 89 -13 89 -39 0 -21 -34 -40
-71 -40 -80 0 -22 -42 76 -54 36 -5 58 -2 79 9 58 31 70 9 41 -75 -29 -81 -14
-115 53 -125 54 -8 155 -37 170 -48 9 -7 12 8 12 72 0 132 33 241 72 241 34 0
48 -13 63 -56 9 -28 21 -41 41 -48 32 -10 46 -25 37 -40 -3 -5 -7 -41 -8 -80
-2 -74 -36 -175 -75 -224 -22 -27 -66 -22 -75 9 -4 10 -11 19 -16 19 -29 0 23
-141 71 -192 34 -35 41 -38 91 -38 30 0 115 -9 189 -20 74 -11 140 -18 148
-15 7 2 32 -2 55 -11 24 -8 124 -21 232 -30 136 -10 216 -21 280 -39 75 -21
115 -26 243 -28 l153 -2 39 45 c63 74 145 248 156 331 10 76 16 79 165 79
l130 0 25 58 c56 130 54 127 109 130 48 2 52 0 108 -52 49 -47 57 -59 51 -81
-5 -21 4 -36 57 -93 34 -37 89 -82 122 -101 53 -30 64 -32 112 -26 32 4 62 2
74 -4 11 -6 34 -40 51 -75 37 -74 59 -97 118 -119 62 -25 204 -23 261 3 59 27
68 26 86 -16 l15 -37 58 8 c91 13 124 12 132 -5 4 -8 18 -53 31 -100 27 -100
54 -152 107 -203 49 -47 85 -56 226 -57 102 0 113 2 147 25 20 14 50 43 66 63
44 54 103 170 114 224 6 25 16 48 22 51 7 2 35 1 62 -4 28 -4 93 -8 146 -8 53
-1 136 -8 185 -17 49 -9 154 -21 234 -25 174 -11 198 -11 272 -3 56 6 57 5 73
-26 21 -40 49 -50 145 -50 43 0 81 -4 84 -9 3 -5 9 -42 12 -82 4 -41 11 -80
17 -86 6 -9 43 -13 111 -14 55 -1 130 -4 165 -8 58 -5 65 -9 80 -36 9 -17 20
-30 25 -30 5 0 8 50 7 115 -2 91 -6 119 -19 135 -55 65 -73 113 -92 256 -11
84 -2 264 15 305 8 20 15 51 15 70 0 35 27 68 108 132 23 18 51 50 61 70 23
46 50 71 87 81 55 15 134 -71 134 -146 0 -19 7 -47 15 -62 18 -36 29 -103 22
-133 -4 -13 -20 -31 -37 -41 -37 -23 -39 -51 -2 -74 38 -24 52 -43 47 -67 -2
-12 -7 -38 -10 -59 -6 -37 -7 -38 -43 -35 -36 3 -38 5 -56 63 -44 139 -50 136
-70 -30 -8 -66 -21 -137 -30 -157 -9 -21 -16 -48 -16 -60 0 -13 -7 -36 -15
-52 -20 -38 -19 -43 8 -50 16 -4 28 1 45 22 l23 27 -6 -45 c-7 -45 -6 -46 32
-65 66 -34 65 -32 33 -94 -15 -31 -35 -63 -44 -70 -9 -8 -16 -22 -16 -32 0
-23 -23 -29 -118 -32 -68 -2 -73 -3 -67 -22 4 -11 9 -32 12 -47 3 -14 26 -49
52 -77 43 -48 50 -52 126 -67 125 -25 331 -7 399 35 68 42 155 175 183 281 8
30 20 74 26 98 15 54 32 59 132 38 54 -11 131 -16 255 -16 98 0 190 -4 203 -9
15 -6 27 -21 31 -38 4 -15 26 -47 49 -71 53 -54 125 -79 185 -63 45 13 128 72
136 99 4 10 20 32 37 48 l30 29 380 3 c289 3 383 1 394 -8 9 -7 15 -29 15 -51
0 -27 5 -41 18 -48 11 -6 148 -10 332 -11 204 0 318 -4 326 -11 7 -6 23 -32
35 -57 48 -101 136 -205 203 -239 17 -9 33 -19 36 -23 3 -4 36 -17 74 -29 51
-16 94 -21 175 -21 128 0 217 26 285 83 74 62 184 233 201 313 11 54 28 61
165 67 149 7 269 35 357 83 123 68 153 135 153 345 0 137 -9 200 -37 270 -13
31 -14 67 -5 230 11 227 2 584 -15 614 -26 44 -54 115 -59 147 -7 51 6 61 83
66 52 3 74 9 91 26 49 44 52 69 63 446 5 195 10 362 10 370 2 32 -30 94 -65
127 l-36 34 0 199 c0 125 4 201 10 205 6 4 35 9 65 12 57 6 76 22 28 24 -51 1
-88 10 -102 24 -11 11 -16 61 -22 197 -8 165 -19 347 -49 788 -5 80 -14 175
-20 212 -6 37 -9 116 -8 175 l3 108 50 5 c46 5 50 7 53 33 3 26 -25 112 -67
203 -13 27 -35 51 -65 70 -26 16 -48 38 -50 49 -2 11 -13 67 -25 125 -11 58
-23 130 -25 161 -11 106 -43 167 -111 209 -34 21 -109 29 -510 55 -126 8 -247
17 -268 20 -41 6 -131 47 -142 66 -12 18 16 58 46 64 44 10 52 26 38 82 -19
76 -23 81 -83 88 -38 5 -61 14 -76 30 -20 22 -24 22 -54 10 -24 -10 -50 -12
-102 -5 -59 7 -190 15 -569 35 -44 2 -143 9 -220 14 -229 18 -662 32 -747 25
-81 -7 -85 -6 -170 37 -20 11 -70 24 -111 29 -41 5 -86 14 -100 21 -16 7 -31
8 -42 2 -14 -8 -6 -20 54 -80 68 -68 76 -80 71 -113 -3 -24 -7 -24 -43 4 -19
14 -43 26 -54 26 -11 0 -30 11 -42 24 -39 41 -86 59 -140 51 -34 -5 -59 -2
-86 9 -20 9 -41 13 -46 10 -21 -12 -506 -11 -598 3 -52 7 -140 13 -196 13 -70
0 -114 5 -140 16 -22 9 -89 19 -160 23 -67 5 -127 11 -134 15 -6 4 -56 11
-112 15 -55 4 -104 12 -110 18 -7 7 -6 36 1 89 6 43 14 106 17 139 3 33 9 64
14 70 17 17 9 25 -18 19 -44 -11 -79 -43 -99 -88 -10 -22 -21 -43 -25 -46 -10
-9 -29 -98 -23 -113 3 -9 -6 -23 -22 -36 -47 -37 -206 -24 -174 14 6 7 10 35
8 62 -2 40 -6 47 -21 45 -29 -5 -70 18 -92 51 -11 17 -29 35 -40 41 -32 17
-145 138 -145 155 0 6 -4 11 -10 11 -5 0 -10 -6 -10 -14z m575 -482 c14 -9 25
-26 25 -38 0 -12 7 -31 15 -43 11 -16 16 -55 18 -153 2 -117 4 -133 21 -146
26 -18 73 -18 127 2 24 8 88 19 143 24 54 5 103 13 108 18 19 19 -37 26 -188
24 -174 -3 -180 -1 -169 70 4 24 17 75 31 115 13 39 24 80 24 91 0 41 11 52
50 52 20 0 52 -8 70 -17 23 -11 74 -19 160 -23 69 -4 150 -15 180 -24 30 -8
71 -16 91 -16 35 0 120 -35 171 -71 33 -24 44 -24 75 1 33 25 35 25 66 -6 28
-28 27 -44 -1 -44 -12 0 -22 -14 -31 -45 -7 -25 -11 -48 -8 -51 3 -3 23 -8 44
-10 21 -2 57 -6 81 -10 32 -5 49 -2 70 12 15 11 39 24 55 31 29 13 31 12 62
-32 12 -17 17 -18 34 -8 18 11 22 10 32 -8 9 -17 7 -25 -9 -42 -11 -12 -34
-50 -52 -85 -26 -51 -34 -81 -42 -160 -17 -181 -12 -311 16 -421 35 -135 34
-165 -3 -181 -54 -22 -60 -37 -58 -135 2 -70 -2 -98 -16 -125 -19 -38 -21 -51
-38 -355 -11 -182 -20 -585 -16 -710 2 -97 0 -131 -13 -155 l-13 -24 -21 30
c-37 50 -55 64 -87 64 -21 0 -37 -8 -52 -27 -72 -87 -81 -93 -145 -93 -121 0
-120 -2 -121 324 -1 142 2 269 5 282 4 14 19 31 35 39 43 23 49 62 49 358 0
290 -3 307 -54 341 -29 18 -33 52 -15 103 l10 31 122 4 c115 5 123 4 139 -16
l17 -21 10 28 c7 18 18 27 33 27 58 1 63 41 9 77 -32 21 -44 23 -175 22 -142
0 -200 -9 -163 -24 18 -8 24 -35 7 -35 -18 0 -42 -49 -59 -122 -16 -66 -20
-73 -42 -73 -26 0 -29 15 -16 68 6 20 3 29 -8 34 -24 9 -36 -9 -38 -57 -2 -39
-5 -44 -31 -51 -38 -10 -83 -55 -91 -88 -7 -32 -24 -572 -18 -587 2 -5 18 -14
36 -20 l32 -9 0 -145 c0 -122 2 -145 15 -145 12 0 16 22 22 110 4 61 10 125
13 142 9 49 58 69 89 37 14 -13 16 -54 16 -300 -1 -279 0 -286 22 -327 20 -35
32 -45 78 -61 58 -19 184 -26 235 -13 25 7 35 4 63 -22 19 -18 32 -40 32 -55
0 -13 10 -50 22 -81 25 -67 36 -57 37 35 1 30 4 65 7 78 7 26 34 30 35 5 0
-10 2 -86 3 -169 2 -82 6 -159 10 -171 4 -12 18 -23 34 -27 15 -3 38 -14 51
-24 l24 -19 -54 -37 c-29 -20 -66 -36 -81 -36 -48 0 -58 -21 -59 -128 -2 -190
-9 -242 -29 -242 -21 0 -24 41 -22 260 l2 165 35 38 c27 30 35 47 35 76 0 21
-2 40 -4 42 -3 3 -52 -41 -110 -98 -95 -92 -170 -143 -210 -143 -26 0 -176
-64 -249 -107 -42 -25 -95 -47 -117 -50 -23 -3 -46 -13 -53 -23 -20 -28 -64
-53 -72 -40 -8 14 -52 32 -82 34 -11 0 -39 17 -60 37 -29 27 -43 34 -58 28
-11 -4 -30 -8 -43 -8 -30 -1 -50 45 -50 115 0 28 -5 60 -11 72 -6 11 -11 29
-11 40 0 11 -9 30 -19 44 -11 13 -27 47 -36 76 -36 110 -54 81 -68 -112 -7
-86 -16 -157 -22 -159 -6 -1 -13 40 -18 98 -4 55 -12 113 -17 129 -6 16 -10
47 -10 70 0 46 -12 72 -29 62 -7 -5 -11 -47 -12 -114 -1 -196 -18 -332 -36
-287 -2 6 -8 17 -14 25 -8 12 -12 12 -16 2 -7 -17 -120 -132 -129 -132 -4 0
-17 -9 -29 -20 l-22 -21 -13 62 c-10 47 -11 127 -6 348 4 157 11 324 16 371 8
81 25 406 50 985 6 144 20 317 31 387 10 70 19 140 19 157 0 16 5 33 12 37 12
8 222 7 248 -1 8 -2 24 2 34 10 16 12 18 19 8 39 -10 23 -12 24 -49 11 -52
-17 -200 -25 -218 -11 -16 12 -12 68 20 271 8 50 17 116 21 149 3 32 12 76 20
98 8 22 14 52 14 67 0 59 22 106 73 155 44 44 51 54 49 85 -2 20 2 68 8 106 6
39 15 113 21 165 5 52 12 101 14 109 7 18 85 8 120 -15z m1315 -118 c0 -48 -8
-65 -41 -81 -34 -18 -68 -18 -131 -2 -90 24 -81 42 22 46 46 2 83 20 110 52
24 29 40 23 40 -15z m258 -19 c5 -25 -26 -57 -55 -57 -21 0 -23 3 -17 23 15
52 64 75 72 34z m-37 -119 c3 -30 -3 -64 -13 -73 -7 -7 -9 -5 -6 5 3 8 2 27
-3 42 -4 14 -5 29 -1 32 9 10 22 7 23 -6z m597 -75 c42 -10 2 -23 -73 -23
-130 0 -212 18 -157 34 20 6 196 -2 230 -11z m-468 -243 c0 -5 -4 -10 -10 -10
-5 0 -10 5 -10 10 0 6 5 10 10 10 6 0 10 -4 10 -10z m3257 -945 c18 -13 22
-13 33 0 8 10 17 12 29 5 22 -11 36 -161 51 -540 5 -146 15 -298 21 -338 12
-78 5 -102 -32 -102 -28 0 -39 31 -40 112 -2 118 -15 137 -23 33 -11 -144 -6
-135 -84 -135 -101 0 -301 19 -321 29 -17 9 -18 43 -25 471 -4 253 -4 465 -1
470 4 6 81 10 188 10 145 0 187 -3 204 -15z m-3717 -1259 c0 -16 -18 -31 -27
-22 -8 8 5 36 17 36 5 0 10 -6 10 -14z m1251 -843 c18 -18 0 -510 -18 -529
-22 -22 -305 -20 -324 2 -17 21 5 524 24 537 17 12 306 2 318 -10z m-2608
-126 c10 -6 20 -28 23 -48 5 -29 2 -41 -15 -58 -42 -42 -111 -12 -111 47 0 57
60 91 103 59z m597 -28 c0 -5 -11 -9 -25 -9 -26 0 -34 15 -12 23 16 5 37 -3
37 -14z m4214 -10 c155 -6 291 -13 304 -15 21 -4 22 -9 22 -93 0 -125 0 -125
-154 -117 -67 4 -244 11 -395 16 -158 5 -279 14 -285 20 -18 18 -3 188 18 203
6 5 56 6 110 3 54 -3 225 -10 380 -17z m-4220 -64 c24 -10 50 -13 77 -9 l41 7
-17 -27 c-10 -15 -16 -29 -13 -31 5 -5 120 -13 323 -20 88 -3 168 -8 178 -11
20 -6 22 -41 4 -65 -7 -9 -29 -22 -49 -29 -35 -13 -40 -12 -69 9 l-32 24 -18
-24 c-13 -16 -17 -33 -13 -52 3 -15 3 -45 -1 -67 -6 -37 -9 -40 -40 -40 -41 0
-45 6 -50 69 -7 80 -19 101 -58 101 -25 0 -44 -9 -74 -38 -22 -21 -66 -49 -98
-62 l-58 -24 -18 25 c-32 41 -38 47 -48 50 -6 2 -14 31 -20 64 -9 58 -9 61 17
82 l26 22 -27 25 c-15 14 -27 28 -27 31 0 9 27 5 64 -10z m-106 -83 c18 -10
20 -17 12 -32 -5 -10 -10 -32 -10 -48 0 -52 -12 -92 -31 -102 -12 -7 -41 -5
-89 5 -39 8 -122 15 -184 15 -85 0 -125 5 -166 19 -33 12 -56 16 -59 10 -1 -6
-13 4 -26 21 -18 25 -22 39 -17 73 3 23 10 46 16 50 19 14 528 4 554 -11z
m-640 -123 l-3 -84 -34 -3 c-18 -2 -47 2 -63 9 -27 11 -29 15 -23 53 11 70 15
76 43 76 17 0 34 9 46 25 29 38 37 18 34 -76z m-3350 69 c18 -18 15 -26 -15
-41 -26 -14 -26 -15 -5 -21 26 -8 38 -42 22 -61 -6 -8 -29 -15 -51 -17 -22 -2
-39 -7 -38 -12 3 -27 -68 -35 -78 -8 -4 9 -15 23 -25 30 -24 17 -23 49 2 64
11 7 20 23 20 36 0 14 8 26 23 32 33 13 131 12 145 -2z m617 -4 c15 -15 15
-18 0 -34 -13 -15 -14 -22 -4 -38 17 -27 5 -52 -26 -52 -14 0 -25 -4 -25 -10
0 -5 11 -10 25 -10 37 0 30 -24 -10 -39 -51 -18 -149 2 -142 30 3 10 -1 23 -9
30 -21 17 -17 35 13 57 l27 19 -23 8 c-41 13 -21 39 34 46 93 11 123 9 140 -7z
m599 -4 c6 -6 5 -19 -4 -34 -10 -20 -11 -39 -2 -93 10 -62 10 -69 -8 -88 -23
-24 -26 -67 -7 -83 6 -5 23 -13 37 -16 14 -2 -2 -3 -34 -1 -39 3 -69 -1 -87
-11 -35 -18 -172 -24 -259 -13 -135 19 -89 50 74 50 110 1 115 2 130 24 21 33
20 40 -10 69 -23 21 -26 29 -20 65 3 22 1 50 -5 63 -16 35 3 76 38 81 43 6
147 -3 157 -13z m-2362 -14 c18 -40 5 -56 -47 -56 -87 0 -67 72 23 79 7 1 17
-10 24 -23z m-232 -1 c51 -27 28 -65 -39 -65 -44 0 -61 10 -61 34 0 46 45 59
100 31z m2279 -44 c1 -30 6 -62 11 -71 15 -27 -3 -40 -68 -46 -48 -5 -67 -3
-87 10 -44 29 -27 75 30 77 31 1 28 3 -17 13 -21 5 -28 12 -28 29 0 36 16 44
89 43 l68 -1 2 -54z m-1769 35 c23 -29 8 -59 -43 -79 l-48 -20 -39 38 c-37 36
-39 40 -23 57 21 23 134 26 153 4z m3103 -15 c4 -4 2 -21 -4 -39 -9 -27 -8
-36 10 -61 17 -24 19 -34 10 -53 -19 -41 -59 -62 -126 -66 -78 -5 -110 2 -118
29 -9 28 12 49 49 49 17 0 41 3 54 6 40 11 23 24 -30 24 -74 0 -82 8 -75 65 4
26 9 51 12 55 6 10 206 1 218 -9z m-3415 -77 c29 -8 28 -18 -3 -32 -28 -13
-55 -6 -55 12 0 25 16 31 58 20z m4423 -70 c25 -19 238 -34 482 -35 151 -1
237 -5 237 -11 0 -5 -7 -22 -16 -38 -19 -30 -13 -60 10 -60 9 0 22 12 30 28 8
15 26 38 39 51 21 19 32 22 59 17 18 -4 103 -11 188 -16 85 -5 175 -14 200
-19 25 -6 93 -13 153 -16 97 -6 109 -9 126 -31 17 -21 27 -24 85 -24 54 0 67
-3 76 -19 17 -32 12 -86 -11 -115 -21 -26 -24 -27 -84 -21 -78 9 -105 -3 -105
-46 0 -40 -25 -98 -53 -120 -12 -11 -34 -31 -49 -45 -35 -34 -76 -30 -98 11
-14 26 -22 30 -58 30 -33 0 -48 7 -78 35 -20 19 -47 52 -61 74 -36 56 -50 36
-35 -51 7 -37 15 -159 17 -271 3 -111 10 -214 15 -227 8 -22 16 -25 57 -25 27
0 99 7 162 15 136 18 153 15 149 -27 -2 -22 -14 -38 -45 -60 l-41 -30 -129 21
c-70 12 -131 21 -135 21 -5 0 -8 -11 -8 -23 0 -13 -8 -31 -18 -40 -28 -25 -42
-3 -42 68 -1 126 -19 280 -41 335 -14 35 -21 74 -20 108 3 91 -47 210 -118
283 -53 54 -97 65 -206 54 -58 -7 -67 -11 -110 -53 -25 -26 -48 -57 -51 -69
-9 -33 -36 -37 -202 -24 -81 6 -193 14 -250 17 -88 6 -104 9 -113 26 -6 12 -9
69 -7 141 3 117 4 123 32 158 30 37 43 42 67 23z m-5807 -45 c13 -12 -16 -21
-55 -17 -23 2 -35 9 -37 22 -3 16 1 17 40 11 23 -4 47 -11 52 -16z m1459 -1
c30 -16 8 -28 -51 -28 -70 0 -92 11 -72 35 10 12 23 14 59 9 25 -4 54 -11 64
-16z m-682 2 c33 -21 7 -23 -304 -21 -135 0 -163 4 -152 21 7 11 438 11 456 0z
m487 -13 c29 -19 10 -28 -45 -22 -75 9 -99 15 -85 24 15 9 114 8 130 -2z m497
-27 c0 -12 -16 -15 -88 -14 -48 0 -90 4 -94 8 -16 16 27 26 102 24 63 -2 80
-6 80 -18z m1394 8 c56 -13 62 -21 29 -39 -26 -14 -165 -22 -172 -10 -11 17
41 52 86 60 3 0 29 -4 57 -11z m-1119 -8 c15 -9 -151 -23 -173 -14 -9 3 -14
10 -11 15 6 11 167 10 184 -1z m520 -15 c40 -25 -33 -34 -103 -13 -32 10 -36
13 -21 19 21 8 108 4 124 -6z m364 -11 c36 -14 12 -24 -56 -24 -93 0 -154 10
-136 21 15 10 168 12 192 3z m1253 -21 c7 -3 13 -11 13 -19 0 -17 -41 -19 -57
-3 -8 8 -37 8 -108 0 -101 -12 -118 -10 -108 15 4 12 27 14 126 13 66 0 126
-3 134 -6z m344 -24 c11 -5 17 -14 14 -20 -8 -12 -46 -11 -65 1 -13 9 -13 11
0 20 19 12 27 12 51 -1z m354 -29 c0 -19 -35 -26 -46 -8 -15 23 -10 29 19 26
16 -2 27 -9 27 -18z m-2942 -27 c16 -19 20 -49 18 -141 l-1 -54 -61 62 c-56
58 -59 63 -42 76 10 7 21 14 25 14 3 0 11 14 17 30 11 34 21 37 44 13z m-978
-46 c28 -23 49 -107 27 -107 -12 0 -52 48 -52 63 0 5 -10 18 -22 29 -19 16
-20 21 -8 28 21 14 26 13 55 -13z m451 -12 c21 -21 23 -29 14 -40 -10 -12 -17
-9 -46 19 -19 18 -34 36 -34 40 0 16 43 3 66 -19z m3002 -49 c41 -21 75 -86
82 -156 l5 -55 130 -1 c72 -1 200 -4 285 -7 140 -5 157 -4 179 12 24 18 25 18
74 -8 43 -22 71 -27 185 -35 106 -8 140 -7 165 4 48 20 107 23 188 11 40 -7
138 -15 218 -18 143 -6 147 -7 184 -36 41 -34 48 -66 19 -88 -11 -8 -36 -58
-56 -111 -43 -109 -63 -135 -94 -119 -15 8 -22 8 -26 -2 -3 -8 -10 -6 -21 8
-13 16 -15 33 -11 82 6 58 5 63 -18 78 -32 21 -184 32 -215 15 -18 -9 -22 -18
-18 -38 11 -58 -29 -80 -158 -88 -84 -6 -246 15 -286 36 -12 7 -63 16 -113 20
-50 4 -104 15 -121 24 -16 9 -36 16 -43 16 -7 0 -33 9 -57 20 -37 17 -64 20
-167 19 -141 -1 -175 5 -183 32 -4 10 -10 19 -14 19 -8 0 -53 85 -65 123 -3 9
-11 17 -18 17 -7 0 -32 22 -55 49 -61 71 -163 101 -219 65 -33 -22 -40 -12
-24 36 16 48 48 79 92 91 47 12 139 4 176 -15z m-3470 -240 c17 -91 16 -96
-16 -96 -16 0 -37 6 -47 14 -17 12 -17 14 -2 37 22 31 21 43 -5 96 -19 38 -20
46 -8 53 27 17 65 -34 78 -104z m431 64 c24 -13 60 -98 61 -146 2 -76 -1 -137
-7 -147 -9 -15 -23 15 -23 50 0 25 -6 35 -27 45 -19 9 -27 20 -25 33 10 64 6
104 -12 124 -31 34 -8 63 33 41z m533 -81 c23 -45 27 -65 25 -124 -2 -55 -5
-70 -18 -73 -11 -2 -19 6 -23 22 -3 14 -15 30 -26 36 -24 13 -26 43 -4 65 15
14 14 19 -5 57 -15 31 -18 46 -10 60 15 29 31 18 61 -43z m5041 -3 c5 -33 4
-52 -4 -62 -30 -37 -64 4 -53 64 9 48 12 54 32 50 11 -2 19 -19 25 -52z
m-4198 28 c88 -15 -7 -23 -282 -23 -277 -1 -321 4 -282 31 15 10 496 3 564 -8z
m-2391 0 c20 -8 21 -33 2 -59 -7 -11 -17 -55 -21 -98 -6 -70 -9 -78 -30 -83
-56 -14 -60 -8 -63 110 -2 71 1 113 9 122 12 14 74 19 103 8z m2951 -45 c5 -5
-13 -9 -46 -9 -30 0 -59 -4 -65 -10 -10 -10 -267 5 -294 18 -21 10 187 20 300
15 52 -3 99 -9 105 -14z m206 -19 c5 0 9 -4 9 -10 0 -11 -50 -13 -77 -3 -16 6
-15 8 7 14 14 4 31 5 38 3 8 -2 18 -4 23 -4z m-2551 -85 c0 -15 -6 -25 -14
-25 -22 0 -30 19 -16 35 18 22 30 18 30 -10z m-74 -6 c3 -6 1 -16 -4 -21 -13
-13 -45 8 -36 23 7 12 31 11 40 -2z m3480 -17 c32 -22 71 -150 86 -287 14
-125 12 -173 -7 -225 -9 -25 -16 -49 -15 -55 17 -136 1 -297 -36 -372 -26 -53
-68 -93 -99 -93 -33 0 -77 36 -100 80 -20 40 -23 64 -28 230 -4 131 -1 217 9
295 18 144 53 293 76 327 10 14 18 31 18 36 0 15 56 72 72 72 7 0 18 -4 24 -8z
m-3026 -12 c0 -5 -4 -10 -10 -10 -5 0 -10 5 -10 10 0 6 5 10 10 10 6 0 10 -4
10 -10z m6500 -18 c47 -4 108 -4 135 -1 80 10 132 -8 166 -59 35 -51 36 -67 8
-83 -18 -9 -27 -7 -51 11 -30 22 -30 22 -57 3 -18 -14 -27 -31 -29 -56 -3 -30
-8 -38 -29 -43 -34 -9 -55 5 -65 44 -8 29 -11 31 -29 22 -11 -6 -25 -9 -32 -7
-7 2 -25 -5 -42 -17 -22 -15 -47 -21 -92 -22 -35 -1 -69 -7 -77 -13 -9 -7 -41
-11 -83 -9 l-68 3 3 40 c3 37 17 58 46 68 8 3 8 10 0 28 -9 20 -18 24 -55 24
-41 0 -44 2 -41 24 1 14 10 34 20 44 16 18 27 19 152 12 74 -4 173 -10 220
-13z m-5996 -21 c9 -14 -4 -41 -19 -41 -15 0 -28 27 -19 41 3 5 11 9 19 9 8 0
16 -4 19 -9z m-990 -44 c11 -30 -6 -57 -35 -57 -15 0 -19 7 -19 33 0 58 37 74
54 24z m101 -29 c-9 -77 -13 -85 -32 -59 -13 19 -13 27 2 71 24 71 39 64 30
-12z m359 35 c8 -19 -17 -48 -33 -39 -12 8 -15 39 -4 49 12 12 31 7 37 -10z
m10032 -6 c12 -11 -6 -39 -21 -34 -21 9 -27 -25 -11 -63 12 -30 12 -37 -2 -57
-20 -32 -63 -53 -107 -53 -27 0 -43 7 -63 29 -37 40 -91 61 -141 54 -39 -5
-41 -7 -41 -40 0 -44 -23 -53 -69 -26 -48 28 -50 52 -6 82 28 19 33 27 25 41
-14 26 -4 46 33 64 27 14 61 16 215 13 100 -2 185 -7 188 -10z m-9915 -50 c-1
-4 -1 -17 -1 -29 0 -13 -4 -29 -9 -37 -8 -13 -12 -13 -26 -1 -26 21 -2 87 28
77 5 -1 8 -6 8 -10z m377 -25 c12 -34 -1 -62 -27 -62 -21 0 -33 22 -26 45 3 8
7 22 10 30 7 25 32 17 43 -13z m124 16 c7 -19 -2 -38 -17 -38 -21 0 -28 19
-15 35 15 18 26 19 32 3z m-624 -70 c16 -33 6 -58 -23 -58 -24 0 -42 -30 -30
-50 10 -16 27 -12 52 11 l22 22 21 -24 21 -24 15 23 c25 34 34 27 34 -31 0
-117 -45 -258 -100 -312 l-38 -38 -26 26 c-28 28 -28 29 -50 177 -18 118 -11
215 18 235 9 7 16 17 16 23 0 17 33 53 45 49 5 -2 16 -15 23 -29z m1830 26
c38 -10 25 -20 -30 -22 -60 -2 -91 5 -83 19 7 10 78 12 113 3z m-2192 -61
c-10 -10 -19 5 -10 18 6 11 8 11 12 0 2 -7 1 -15 -2 -18z m969 -4 c4 -5 4 -22
0 -37 l-8 -27 -7 25 c-5 14 -8 31 -9 38 -1 15 15 16 24 1z m-150 -29 c26 0 58
-29 81 -72 12 -23 19 -27 43 -22 35 7 45 -18 25 -66 -8 -18 -14 -51 -14 -74
-1 -22 -9 -59 -20 -81 -11 -22 -19 -46 -20 -53 0 -7 -12 -33 -26 -58 -19 -33
-32 -44 -50 -44 -13 0 -24 5 -24 12 0 6 -6 19 -14 27 -22 26 -56 166 -56 234
0 34 7 87 15 117 9 30 17 64 19 75 5 29 7 32 13 18 2 -7 15 -13 28 -13z m5666
-70 c28 -15 24 -49 -7 -60 -32 -13 -114 -13 -134 0 -21 13 -2 42 30 46 14 1
36 7 50 13 33 13 38 13 61 1z m-20 -140 c10 -6 19 -15 19 -21 0 -16 -62 -37
-96 -32 -20 3 -35 -1 -43 -11 -15 -18 -56 -21 -66 -5 -12 18 5 60 28 69 31 12
134 12 158 0z m-1470 -93 c-18 -18 -25 2 -10 30 14 26 14 26 17 4 2 -13 -1
-28 -7 -34z m-782 -23 c69 -13 121 -15 266 -10 192 7 225 1 298 -48 15 -10 42
-22 59 -25 45 -9 45 -25 -1 -46 -33 -14 -45 -15 -72 -6 -47 16 -187 3 -210
-20 -9 -9 -20 -15 -23 -11 -3 3 -6 -11 -6 -32 0 -20 -4 -35 -8 -32 -5 3 -16
-6 -26 -19 -21 -28 -64 -40 -112 -30 -25 4 -34 11 -32 23 2 9 -5 18 -15 20
-16 3 -17 1 -7 -19 11 -20 10 -21 -6 -15 -11 4 -28 9 -39 11 -11 1 -37 6 -58
10 l-38 7 52 24 c28 13 59 24 68 24 10 0 28 9 41 20 13 11 31 20 42 20 29 0
21 13 -24 39 -33 19 -64 25 -162 33 -67 5 -149 16 -184 24 -35 7 -73 14 -86
14 -12 0 -31 7 -42 15 -19 15 -19 15 0 30 27 21 213 20 325 -1z m2951 -104 c0
-5 -4 -10 -10 -10 -5 0 -10 5 -10 10 0 6 5 10 10 10 6 0 10 -4 10 -10z m2770
-51 c0 -12 -7 -19 -20 -19 -19 0 -28 28 -14 43 11 11 34 -5 34 -24z m-3925
-119 c30 -15 59 -20 125 -20 95 0 130 -7 130 -24 0 -18 -66 -46 -108 -46 -21
0 -47 -7 -58 -15 -10 -8 -25 -15 -33 -15 -8 0 -30 -10 -48 -22 -30 -20 -34
-27 -29 -55 5 -34 -15 -50 -48 -37 -23 9 -46 96 -46 175 0 62 2 68 23 72 43 8
53 7 92 -13z m-268 -67 c-3 -19 0 -27 14 -30 34 -9 20 -24 -18 -21 -38 3 -38
3 -41 51 -2 28 2 55 9 64 11 12 15 11 27 -12 8 -15 12 -39 9 -52z"/>
<path d="M6868 5960 c-13 -31 -18 -89 -8 -95 5 -3 13 0 16 8 7 20 0 106 -8 87z"/>
<path d="M6827 5763 c-9 -14 -19 -231 -13 -251 4 -12 13 -19 20 -16 16 6 41
88 32 103 -4 6 -7 39 -7 73 0 35 -2 71 -5 81 -6 18 -19 23 -27 10z"/>
<path d="M7215 5390 c-4 -6 10 -10 35 -10 25 0 39 4 35 10 -3 6 -19 10 -35 10
-16 0 -32 -4 -35 -10z"/>
<path d="M6938 5343 c6 -2 18 -2 25 0 6 3 1 5 -13 5 -14 0 -19 -2 -12 -5z"/>
<path d="M6790 5290 c-1 -3 -7 -45 -15 -95 -49 -299 -67 -480 -62 -630 3 -92
10 -161 18 -178 10 -23 10 -37 1 -74 -25 -90 -50 -704 -31 -735 15 -23 43 5
53 53 4 24 9 238 11 474 3 436 12 617 41 825 18 123 14 334 -6 354 -5 5 -10 8
-10 6z"/>
<path d="M7044 5263 c-26 -24 -29 -34 -32 -100 -7 -130 21 -140 37 -14 7 53
16 80 31 96 20 21 21 45 1 45 -5 0 -21 -12 -37 -27z"/>
<path d="M6987 4905 c-4 -22 -7 -114 -7 -205 0 -131 -4 -180 -20 -240 -14 -53
-20 -108 -20 -187 0 -106 1 -113 20 -113 19 0 20 7 20 133 1 95 5 139 15 157
11 20 14 69 13 230 0 113 -3 219 -7 235 l-7 30 -7 -40z"/>
<path d="M6505 3696 c-23 -23 -26 -33 -23 -78 l3 -53 40 -6 c44 -7 61 -4 68
14 8 21 -20 108 -41 129 l-20 21 -27 -27z"/>
<path d="M6868 3553 c12 -2 32 -2 45 0 12 2 2 4 -23 4 -25 0 -35 -2 -22 -4z"/>
<path d="M7003 3553 c15 -2 37 -2 50 0 12 2 0 4 -28 4 -27 0 -38 -2 -22 -4z"/>
<path d="M3740 2440 c-11 -7 -6 -10 20 -10 26 0 31 3 20 10 -8 5 -17 10 -20
10 -3 0 -12 -5 -20 -10z"/>
<path d="M8575 1540 c-24 -26 -11 -40 42 -47 35 -4 41 -2 46 16 10 40 -57 65
-88 31z"/>
<path d="M1995 1250 c3 -5 10 -10 16 -10 5 0 9 5 9 10 0 6 -7 10 -16 10 -8 0
-12 -4 -9 -10z"/>
<path d="M2445 1280 c-3 -4 4 -18 14 -31 16 -20 21 -21 34 -10 9 7 14 18 11
26 -6 15 -52 26 -59 15z"/>
<path d="M2500 1184 c0 -9 7 -14 17 -12 25 5 28 28 4 28 -12 0 -21 -6 -21 -16z"/>
<path d="M6000 825 c0 -13 4 -14 20 -5 11 6 20 13 20 15 0 3 -9 5 -20 5 -11 0
-20 -7 -20 -15z"/>
<path d="M6029 6896 c-14 -7 -62 -14 -110 -15 -46 -1 -115 -10 -154 -21 -67
-18 -99 -24 -284 -55 -46 -8 -90 -20 -99 -27 -9 -8 -47 -14 -96 -15 -45 -1
-97 -8 -116 -16 -19 -8 -57 -18 -85 -22 -27 -4 -75 -13 -105 -21 -30 -8 -71
-14 -91 -14 -20 0 -62 -9 -94 -20 -32 -11 -74 -20 -94 -20 -34 0 -217 -40
-271 -60 -14 -5 -54 -11 -90 -14 -36 -4 -83 -13 -105 -21 -22 -8 -54 -14 -72
-15 -18 0 -58 -7 -90 -16 -32 -8 -83 -19 -113 -23 -30 -4 -84 -15 -120 -24
-95 -23 -282 -61 -456 -92 -39 -7 -80 -17 -90 -23 -11 -6 -49 -13 -84 -17 -36
-3 -78 -10 -95 -15 -39 -13 -216 -50 -280 -60 -61 -10 -379 -76 -455 -95 -30
-7 -81 -16 -114 -19 -32 -3 -88 -15 -125 -25 -63 -19 -140 -33 -366 -68 -55
-8 -148 -26 -206 -39 -58 -13 -118 -24 -133 -24 -14 0 -42 -6 -61 -14 -19 -8
-65 -18 -102 -21 -37 -4 -102 -15 -143 -25 -41 -10 -113 -24 -160 -30 -47 -7
-103 -19 -124 -27 -30 -10 -41 -11 -47 -2 -14 23 7 53 47 64 30 9 35 14 22 19
-25 11 -123 2 -193 -18 -69 -19 -101 -49 -111 -103 -6 -33 -3 -40 25 -65 34
-30 66 -36 74 -14 3 7 24 16 46 20 26 4 50 16 63 31 17 19 31 25 65 25 24 0
58 6 76 14 18 7 55 16 82 20 28 4 75 14 105 22 30 8 71 14 93 14 21 0 52 7 70
16 17 9 65 20 107 25 100 11 246 39 292 55 20 7 72 16 115 19 43 4 99 15 125
26 26 10 62 19 80 19 18 0 51 5 73 11 22 6 74 14 115 19 47 5 89 15 109 28 28
17 46 20 100 16 53 -4 74 0 106 16 25 13 59 20 92 20 29 0 70 6 90 14 21 8 67
17 103 20 36 3 83 14 105 26 28 14 58 20 108 20 38 0 90 6 116 14 60 19 136
34 241 47 47 6 103 20 126 30 25 12 63 19 97 19 31 0 76 6 99 14 24 8 68 19
98 25 30 5 68 14 83 20 16 6 56 11 89 11 39 0 77 7 102 18 36 17 113 33 293
62 29 4 62 15 75 24 15 11 45 16 93 16 45 0 91 7 128 20 31 11 72 20 91 20 20
0 55 6 78 14 24 8 70 17 102 20 33 4 74 15 91 26 25 15 50 20 109 20 43 0 87
5 98 11 12 6 48 15 82 20 34 5 86 15 116 24 30 8 78 15 106 15 30 0 70 8 95
20 30 13 66 20 111 20 37 0 87 6 110 14 24 8 70 18 103 22 33 3 72 13 87 20
15 8 44 14 65 14 46 0 68 13 60 34 -8 20 -62 21 -98 2z"/>
<path d="M6395 6721 c-6 -30 8 -71 24 -71 24 0 43 62 28 88 -15 23 -45 14 -52
-17z"/>
<path d="M2263 5523 c-8 -3 -13 -24 -13 -54 l0 -50 53 3 52 3 3 48 c2 26 -1
48 -5 48 -24 5 -80 5 -90 2z"/>
<path d="M2425 5522 c-3 -3 -5 -27 -5 -54 l0 -48 50 0 50 0 0 50 c0 28 -3 50
-7 51 -68 5 -84 5 -88 1z"/>
<path d="M739 5318 c-2 -175 -26 -535 -37 -555 -8 -14 -22 -23 -37 -23 -25 0
-25 0 -25 -105 l0 -105 60 0 60 0 0 50 0 50 125 0 125 0 0 -50 0 -50 55 0 55
0 0 105 0 105 -25 0 -25 0 0 320 0 320 -165 0 -165 0 -1 -62z m211 -308 l0
-270 -70 0 c-38 0 -70 2 -70 4 0 3 4 15 9 29 5 13 14 127 21 253 6 126 13 235
15 242 3 7 22 12 50 12 l45 0 0 -270z"/>
<path d="M1182 5008 l3 -373 158 -3 157 -3 0 56 0 55 -100 0 -100 0 0 110 0
110 80 0 80 0 0 55 0 55 -80 0 -80 0 0 105 0 105 99 0 99 0 4 46 c2 25 1 47
-1 50 -2 2 -76 4 -163 4 l-158 0 2 -372z"/>
<path d="M1582 5008 l3 -373 278 -3 277 -2 0 375 0 375 -60 0 -60 0 0 -320 0
-320 -50 0 -50 0 0 320 0 320 -60 0 -60 0 0 -320 0 -320 -50 0 -50 0 0 320 0
320 -60 0 -60 0 2 -372z"/>
<path d="M2230 5005 l0 -376 158 3 157 3 0 50 0 50 -102 3 -103 3 0 109 0 110
79 0 79 0 4 51 c1 28 1 53 -1 55 -2 2 -40 4 -83 4 l-79 0 3 103 3 102 103 3
102 3 0 49 0 50 -160 0 -160 0 0 -375z"/>
<path d="M2620 5004 l0 -376 123 3 c100 3 128 8 156 24 55 33 73 65 79 143 7
107 -4 157 -44 202 -28 31 -31 39 -19 44 9 3 25 27 37 53 28 63 22 175 -12
223 -35 49 -73 60 -205 60 l-115 0 0 -376z m217 250 c14 -20 17 -131 4 -152
-4 -7 -26 -17 -47 -22 -32 -8 -41 -6 -51 7 -14 18 -18 174 -5 187 12 13 86 -2
99 -20z m8 -304 c11 -9 15 -34 15 -96 0 -101 -10 -116 -79 -112 l-46 3 -3 99
c-2 54 0 106 3 114 7 18 86 12 110 -8z"/>
<path d="M3050 5004 l0 -376 118 3 c183 6 223 41 230 202 9 192 -41 267 -179
267 l-49 0 0 140 0 140 -60 0 -60 0 0 -376z m220 -33 c5 -11 10 -60 10 -110 0
-104 -10 -121 -71 -121 l-39 0 0 125 0 125 45 0 c34 0 47 -5 55 -19z"/>
<path d="M3470 5005 l0 -375 55 0 55 0 0 375 0 375 -55 0 -55 0 0 -375z"/>
<path d="M3670 5005 l0 -375 160 0 160 0 0 55 0 55 -99 0 c-70 0 -100 4 -103
13 -2 6 -4 55 -3 107 l0 95 83 3 83 3 -3 52 -3 52 -77 3 c-92 3 -91 2 -86 127
l3 80 103 3 102 3 0 49 0 50 -160 0 -160 0 0 -375z"/>
<path d="M4232 5008 l3 -373 153 -3 152 -3 0 -49 0 -50 60 0 60 0 0 105 0 105
-25 0 -25 0 0 320 0 320 -65 0 -65 0 0 -320 0 -320 -65 0 -65 0 0 320 0 320
-60 0 -60 0 2 -372z"/>
<path d="M4720 5005 l0 -375 160 0 160 0 0 55 0 55 -100 0 -100 0 0 110 0 110
80 0 80 0 0 55 0 55 -80 0 -80 0 0 105 0 105 100 0 100 0 0 50 0 50 -160 0
-160 0 0 -375z"/>
<path d="M5110 5005 l0 -375 60 0 60 0 0 160 0 160 65 0 65 0 0 -160 0 -160
60 0 60 0 0 375 0 375 -60 0 -60 0 0 -160 0 -160 -65 0 -65 0 0 160 0 160 -60
0 -60 0 0 -375z"/>
<path d="M5570 5005 l0 -375 108 0 c186 0 234 43 240 216 7 183 -46 254 -189
254 l-44 0 0 137 0 138 -57 3 -58 3 0 -376z m218 -45 c8 -16 12 -54 10 -108
-3 -94 -15 -112 -75 -112 l-33 0 0 126 0 125 42 -3 c33 -2 45 -8 56 -28z"/>
<path d="M5980 5005 l0 -375 60 0 60 0 0 375 0 375 -60 0 -60 0 0 -375z"/>
<path d="M12222 5198 c5 -15 60 -22 96 -13 39 10 8 25 -51 25 -35 0 -47 -4
-45 -12z"/>
<path d="M12375 5108 c4 -29 8 -58 10 -65 8 -24 -29 -52 -74 -57 -24 -3 -47
-10 -51 -16 -7 -12 -20 -312 -20 -476 0 -126 8 -150 52 -159 58 -11 108 -37
108 -55 0 -23 -20 -30 -85 -30 -66 0 -70 -6 -78 -118 -10 -131 17 -172 112
-172 55 0 61 -12 61 -117 0 -55 4 -93 10 -93 6 0 10 37 10 90 0 89 0 90 35
129 33 36 35 42 35 109 0 81 -11 116 -45 148 -31 29 -32 55 -2 91 13 15 27 36
31 47 3 10 3 142 0 293 l-7 275 -36 40 c-32 36 -36 47 -41 111 -3 45 -10 72
-18 75 -10 3 -12 -8 -7 -50z"/>
<path d="M12365 3711 c-3 -5 -1 -12 5 -16 12 -7 30 2 30 16 0 12 -27 12 -35 0z"/>
<path d="M1513 1372 c-8 -5 -8 -13 1 -31 l13 -24 11 32 c11 32 2 40 -25 23z"/>
<path d="M1542 1298 c5 -15 28 -18 29 -3 0 6 -7 12 -17 13 -10 3 -15 -1 -12
-10z"/>
<path d="M7125 1160 c-10 -11 -22 -44 -26 -73 -11 -74 -11 -241 0 -269 5 -14
27 -32 51 -43 39 -17 43 -18 54 -3 7 9 18 56 25 105 10 70 11 102 1 149 -18
91 -30 123 -53 139 -28 19 -30 19 -52 -5z"/>
</g>
</svg>
