<svg xmlns="http://www.w3.org/2000/svg" version="1.0" width="512.000000pt" height="512.000000pt" viewBox="0 0 512.000000 512.000000" preserveAspectRatio="xMidYMid meet">

<g transform="translate(0.000000,512.000000) scale(0.100000,-0.100000)" fill="#ffffff" stroke="none">
<path d="M480 5105 c-346 -78 -552 -431 -451 -773 54 -179 211 -340 391 -398 l65 -21 0 -1353 0 -1353 -65 -21 c-180 -58 -337 -219 -391 -398 -103 -346 107 -700 461 -774 368 -78 726 212 724 586 0 181 -51 308 -173 430 -85 86 -144 124 -240 155 l-66 22 -3 616 -2 617 855 0 855 0 -2 -616 -3 -617 -65 -21 c-88 -29 -149 -66 -228 -141 -354 -333 -184 -929 294 -1030 389 -82 761 239 730 630 -13 164 -73 292 -188 400 -79 75 -138 111 -227 140 l-66 22 -3 616 -2 617 926 0 c802 0 930 2 958 15 64 31 61 -8 66 759 l5 699 65 21 c180 58 337 219 391 398 103 346 -107 700 -461 774 -368 78 -726 -212 -724 -586 0 -181 51 -308 173 -430 85 -86 144 -124 240 -155 l66 -22 3 -616 2 -617 -855 0 -855 0 2 616 3 617 65 21 c88 29 149 66 228 141 354 333 184 929 -294 1030 -389 82 -761 -239 -730 -630 13 -164 73 -292 188 -400 79 -75 138 -111 227 -140 l66 -22 3 -616 2 -617 -855 0 -855 0 2 617 3 616 66 22 c96 31 155 69 240 155 122 122 173 249 173 430 1 258 -172 492 -424 571 -86 27 -225 33 -310 14z m240 -247 c89 -28 173 -102 220 -195 22 -42 25 -61 25 -148 0 -93 -2 -105 -33 -167 -38 -77 -92 -130 -171 -167 -49 -23 -69 -26 -156 -26 -87 0 -107 3 -150 25 -64 32 -143 111 -173 173 -138 282 135 597 438 505z m1950 0 c51 -15 126 -65 163 -109 154 -180 104 -446 -105 -560 -60 -33 -67 -34 -168 -34 -101 0 -108 1 -168 34 -141 76 -214 223 -190 378 12 78 43 138 103 198 97 99 230 133 365 93z m1950 0 c89 -27 176 -103 219 -190 45 -93 45 -223 -1 -315 -30 -62 -109 -141 -173 -173 -43 -22 -63 -25 -150 -25 -87 0 -107 3 -156 26 -79 37 -133 90 -171 167 -31 62 -33 74 -33 167 0 87 3 107 25 150 32 64 111 143 174 174 77 38 179 45 266 19z m-3848 -3926 c77 -38 130 -92 167 -171 23 -49 26 -69 26 -156 0 -87 -3 -107 -25 -150 -14 -27 -47 -72 -75 -100 -248 -248 -662 -40 -614 310 13 100 78 198 169 254 69 42 103 50 200 48 74 -2 95 -6 152 -35z m1956 -2 c140 -75 214 -222 190 -377 -12 -78 -43 -138 -103 -198 -59 -60 -124 -94 -200 -104 -72 -10 -154 2 -213 30 -59 29 -140 110 -169 169 -80 164 -19 377 134 467 78 45 112 53 208 50 80 -3 97 -7 153 -37z" fill="#ffffff"/>
</g>
</svg>