<svg xmlns="http://www.w3.org/2000/svg" xmlns:xlink="http://www.w3.org/1999/xlink" fill="#ffffff" height="800px" width="800px" version="1.1" id="Layer_1" viewBox="0 0 512.013 512.013" xml:space="preserve">
<g>
	<g>
		<path d="M492.174,390.326c-7.051-5.469-14.136-10.265-21.478-14.558c0.334-2.295,0.506-4.624,0.506-6.969    c0-12.603-4.936-24.772-13.776-33.492c-9.574-9.426-18.396-16.857-27.586-22.895c0.348-2.509,0.534-5.054,0.534-7.613    c0-11.621-3.636-23.006-10.505-31.612c-12.908-16.123-26.242-27.351-42.491-35.398c-15.03-8.19-34.366-14.47-56.531-18.629    l-0.494-5.164c-2.212-23.174-20.383-41.403-43.016-43.17v-46.47c24.858-8.784,42.667-32.474,42.667-60.346    c0-35.355-28.645-64-64-64s-64,28.645-64,64c0,27.872,17.808,51.562,42.667,60.346v46.469    c-22.634,1.765-40.808,19.995-43.02,43.174l-0.494,5.162c-21.933,4.11-41.019,10.259-55.587,18.131    c-16.913,8.391-30.582,19.852-43.406,35.87c-6.895,8.59-10.547,19.991-10.547,31.637c0,2.563,0.187,5.11,0.535,7.621    c-9.184,6.035-17.999,13.461-27.559,22.873c-8.855,8.734-13.769,20.902-13.769,33.506c0,2.343,0.171,4.671,0.503,6.964    c-7.347,4.296-14.439,9.096-21.499,14.573c-26.439,20.478-26.439,58.163,0.012,78.651c36.554,28.368,80.009,43.269,128.354,43.017    l215.739,0c48.636,0,91.808-14.761,128.253-43.025C518.625,448.498,518.625,410.813,492.174,390.326z M142.186,403.202    c-0.63-0.128-1.258-0.267-1.886-0.406c-0.255-0.057-0.511-0.109-0.765-0.167c-0.515-0.118-1.029-0.246-1.542-0.372    c-0.366-0.09-0.732-0.175-1.097-0.268c-0.417-0.107-0.831-0.222-1.246-0.333c-0.46-0.124-0.921-0.244-1.38-0.374    c-0.332-0.094-0.663-0.195-0.995-0.292c-0.539-0.158-1.078-0.315-1.615-0.481c-0.264-0.082-0.526-0.169-0.79-0.253    c-0.601-0.191-1.201-0.383-1.799-0.585c-0.209-0.07-0.416-0.146-0.625-0.217c-0.652-0.225-1.304-0.451-1.952-0.688    c-0.154-0.056-0.307-0.116-0.461-0.173c-0.699-0.259-1.396-0.522-2.091-0.795c-0.116-0.046-0.231-0.094-0.347-0.14    c-0.73-0.29-1.458-0.586-2.184-0.893c-0.085-0.036-0.169-0.073-0.254-0.109c-0.754-0.321-1.506-0.648-2.254-0.986    c-0.06-0.027-0.12-0.056-0.18-0.083c-0.771-0.35-1.539-0.708-2.304-1.076c-0.041-0.02-0.083-0.041-0.124-0.061    c-0.781-0.377-1.56-0.763-2.334-1.159c-0.03-0.015-0.059-0.031-0.089-0.046c-0.784-0.402-1.565-0.813-2.342-1.234    c-0.024-0.013-0.048-0.027-0.073-0.04c-0.78-0.424-1.557-0.857-2.329-1.3c-0.026-0.015-0.051-0.03-0.076-0.044    c-0.768-0.442-1.533-0.892-2.294-1.353c-0.035-0.021-0.069-0.043-0.104-0.064c-0.75-0.455-1.496-0.919-2.238-1.393    c-0.046-0.029-0.091-0.059-0.137-0.088c-0.728-0.466-1.453-0.941-2.173-1.425c-0.062-0.042-0.124-0.084-0.186-0.126    c-0.7-0.472-1.397-0.952-2.089-1.441c-0.084-0.06-0.168-0.12-0.253-0.18c-0.667-0.474-1.331-0.954-1.99-1.443    c-0.109-0.081-0.218-0.164-0.327-0.245c-0.629-0.469-1.254-0.945-1.876-1.429c-0.142-0.11-0.283-0.223-0.424-0.334    c-0.585-0.459-1.167-0.923-1.746-1.395c-0.175-0.143-0.349-0.288-0.524-0.432c-0.537-0.443-1.073-0.89-1.604-1.344    c-0.216-0.184-0.43-0.371-0.645-0.557c-0.485-0.42-0.968-0.842-1.448-1.271c-0.256-0.229-0.51-0.46-0.764-0.691    c-0.432-0.392-0.862-0.786-1.29-1.185c-0.3-0.28-0.597-0.563-0.895-0.846c-0.248-0.236-0.495-0.475-0.742-0.714    c-0.14-0.173-0.329-0.401-0.643-0.782c-0.202-0.235-0.419-0.451-0.629-0.676c-0.319-0.62-0.543-1.466-0.543-2.415    c0-1.37,0.477-2.55,1.051-3.116c6.982-6.874,13.132-12.156,19.206-16.356c15.468,15.283,33.324,25.912,52.376,31.083    c0.144,0.039,0.287,0.078,0.431,0.117c0.708,0.189,1.418,0.372,2.13,0.545c0.256,0.063,0.513,0.122,0.769,0.183    c0.647,0.153,1.294,0.304,1.943,0.444c0.336,0.073,0.673,0.138,1.01,0.208c0.593,0.122,1.185,0.247,1.779,0.358    c0.892,0.168,1.786,0.323,2.683,0.467c0.39,0.062,0.783,0.115,1.174,0.173c0.593,0.088,1.185,0.175,1.78,0.253    c0.402,0.052,0.804,0.098,1.207,0.145c0.591,0.07,1.183,0.137,1.776,0.196c0.395,0.04,0.791,0.076,1.187,0.111    c0.613,0.054,1.226,0.102,1.84,0.145c0.376,0.026,0.751,0.053,1.128,0.075c0.674,0.04,1.349,0.069,2.025,0.096    c0.315,0.012,0.629,0.028,0.945,0.038c0.99,0.029,1.982,0.047,2.976,0.047h0.004h146.193h0.004c0.008,0,0.016,0,0.024,0    c0.985,0,1.969-0.018,2.951-0.047c0.325-0.01,0.65-0.026,0.975-0.039c0.669-0.026,1.338-0.056,2.006-0.095    c0.374-0.022,0.747-0.049,1.12-0.075c0.626-0.044,1.252-0.093,1.877-0.148c0.376-0.033,0.753-0.068,1.129-0.106    c0.64-0.064,1.28-0.136,1.918-0.212c0.346-0.041,0.693-0.08,1.039-0.125c0.749-0.097,1.497-0.205,2.243-0.319    c0.227-0.035,0.455-0.064,0.682-0.101c0.987-0.157,1.971-0.328,2.952-0.514c0.146-0.028,0.292-0.06,0.438-0.088    c0.827-0.16,1.653-0.33,2.477-0.51c0.291-0.064,0.581-0.133,0.872-0.2c0.684-0.156,1.368-0.318,2.049-0.488    c0.317-0.079,0.634-0.161,0.95-0.244c0.668-0.174,1.335-0.354,2.001-0.542c0.302-0.085,0.605-0.17,0.907-0.258    c0.722-0.21,1.441-0.43,2.159-0.655c0.232-0.073,0.465-0.143,0.697-0.217c1.934-0.623,3.855-1.301,5.761-2.036    c0.149-0.058,0.298-0.119,0.447-0.177c0.788-0.308,1.574-0.625,2.357-0.952c0.25-0.105,0.5-0.213,0.75-0.32    c0.689-0.294,1.375-0.594,2.06-0.903c0.269-0.121,0.537-0.244,0.806-0.367c0.683-0.314,1.363-0.637,2.042-0.966    c0.247-0.12,0.494-0.237,0.739-0.359c0.765-0.378,1.527-0.766,2.286-1.163c0.147-0.076,0.294-0.15,0.44-0.227    c1.835-0.968,3.652-1.992,5.451-3.067c0.22-0.132,0.439-0.268,0.659-0.401c0.66-0.401,1.319-0.807,1.974-1.222    c0.281-0.178,0.561-0.359,0.841-0.54c0.598-0.385,1.193-0.777,1.786-1.174c0.293-0.196,0.586-0.393,0.878-0.592    c0.594-0.405,1.185-0.818,1.774-1.236c0.273-0.193,0.547-0.384,0.819-0.58c0.683-0.492,1.361-0.994,2.038-1.501    c0.167-0.125,0.336-0.247,0.502-0.373c0.832-0.631,1.659-1.275,2.481-1.931c0.247-0.197,0.492-0.401,0.738-0.6    c0.57-0.461,1.138-0.925,1.703-1.397c0.334-0.279,0.665-0.564,0.997-0.848c0.473-0.404,0.945-0.81,1.414-1.222    c0.357-0.314,0.713-0.631,1.068-0.949c0.441-0.396,0.88-0.796,1.317-1.198c0.363-0.334,0.726-0.669,1.087-1.008    c0.427-0.402,0.851-0.811,1.275-1.22c0.359-0.346,0.72-0.69,1.076-1.042c0.043-0.042,0.086-0.082,0.129-0.125    c6.074,4.201,12.226,9.486,19.214,16.366c0.576,0.568,1.057,1.755,1.057,3.102c0,0.958-0.243,1.815-0.588,2.45    c-0.199,0.214-0.406,0.418-0.597,0.641c-0.291,0.352-0.476,0.576-0.611,0.741c-22.047,21.266-49.625,32.705-78.147,32.705H163.42    c-7.04,0-14.021-0.7-20.871-2.064C142.428,403.248,142.307,403.226,142.186,403.202z M256.005,42.675    c11.791,0,21.333,9.542,21.333,21.333s-9.542,21.333-21.333,21.333c-11.791,0-21.333-9.542-21.333-21.333    S244.213,42.675,256.005,42.675z M238.275,213.338h17.646c0.029,0,0.056,0.004,0.085,0.004c0.029,0,0.056-0.004,0.085-0.004    h17.641c1.917,0,3.877,1.854,4.15,4.715l2.058,21.518c0.002,0.026,0.003,0.051,0.005,0.076l3.029,31.723    c0.08,0.827,0.008,1.603-0.174,2.305c-0.579,2.191-2.264,3.663-3.969,3.663h-45.653c-1.545,0-3.075-1.208-3.779-3.068    c-0.315-0.843-0.46-1.82-0.358-2.879l3.031-31.743c0.012-0.123,0.015-0.244,0.024-0.366l2.03-21.224    C234.398,215.192,236.358,213.338,238.275,213.338z M125.454,299.849c8.768-10.952,17.325-18.266,27.268-23.435    c0.752-0.314,1.487-0.673,2.201-1.073c7.98-4.476,18.93-8.471,31.976-11.649l-0.346,3.615c-0.441,4.639-0.21,9.183,0.589,13.544    c4.003,21.95,22.731,39.158,46.027,39.158h45.653c24.987,0,44.717-19.769,46.677-43.98c0.233-2.852,0.234-5.761-0.046-8.711    l-0.347-3.627c13.187,3.215,24.234,7.269,32.229,11.808c0.761,0.432,1.54,0.813,2.332,1.143    c9.813,5.088,18.061,12.176,26.875,23.185c0.536,0.672,1.165,2.642,1.165,4.971c0,1.893-0.409,3.528-0.859,4.461    c-0.062,0.08-0.13,0.152-0.191,0.232c-0.295,0.427-0.518,0.75-0.695,1.006c-14.86,18.246-32.736,28.695-50.986,30.545    c-0.04,0.004-0.08,0.01-0.121,0.014c-0.462,0.046-0.925,0.08-1.387,0.115c-0.179,0.013-0.359,0.032-0.538,0.044    c-0.376,0.025-0.753,0.039-1.129,0.056c-0.262,0.012-0.524,0.03-0.786,0.039c-0.464,0.015-0.927,0.019-1.391,0.023    c-0.175,0.002-0.35,0.009-0.525,0.009H182.908c-0.638,0-1.276-0.011-1.914-0.032c-0.157-0.005-0.314-0.017-0.471-0.023    c-0.479-0.02-0.958-0.04-1.436-0.071c-0.254-0.017-0.508-0.042-0.761-0.062c-0.38-0.03-0.761-0.057-1.141-0.094    c-0.3-0.03-0.6-0.069-0.9-0.103c-0.333-0.038-0.667-0.072-1-0.116c-0.337-0.044-0.673-0.099-1.009-0.149    c-0.294-0.044-0.589-0.083-0.883-0.131c-0.371-0.061-0.742-0.132-1.113-0.2c-0.259-0.048-0.518-0.09-0.776-0.141    c-0.398-0.079-0.795-0.167-1.193-0.254c-0.23-0.05-0.46-0.096-0.689-0.149c-0.417-0.096-0.833-0.202-1.249-0.307    c-0.21-0.053-0.42-0.102-0.63-0.157c-0.431-0.114-0.86-0.237-1.29-0.36c-0.194-0.055-0.388-0.107-0.581-0.164    c-0.441-0.131-0.882-0.272-1.322-0.414c-0.181-0.058-0.362-0.112-0.543-0.172c-0.444-0.147-0.887-0.304-1.33-0.461    c-0.177-0.063-0.354-0.122-0.531-0.186c-0.445-0.162-0.888-0.334-1.331-0.507c-0.173-0.068-0.347-0.132-0.521-0.201    c-0.443-0.177-0.884-0.363-1.326-0.55c-0.173-0.073-0.347-0.143-0.52-0.218c-0.437-0.19-0.873-0.389-1.309-0.589    c-0.176-0.081-0.353-0.158-0.529-0.241c-0.426-0.2-0.85-0.408-1.274-0.617c-0.186-0.092-0.373-0.18-0.558-0.274    c-0.414-0.209-0.826-0.426-1.238-0.644c-0.194-0.103-0.389-0.203-0.583-0.307c-0.399-0.216-0.797-0.44-1.194-0.665    c-0.206-0.117-0.413-0.23-0.619-0.349c-0.38-0.22-0.759-0.447-1.138-0.675c-0.223-0.134-0.446-0.265-0.668-0.401    c-0.361-0.222-0.72-0.452-1.08-0.681c-0.237-0.151-0.475-0.3-0.712-0.455c-0.343-0.224-0.685-0.455-1.026-0.686    c-0.252-0.17-0.504-0.338-0.755-0.511c-0.322-0.223-0.642-0.452-0.962-0.68c-0.27-0.192-0.54-0.383-0.809-0.58    c-0.3-0.22-0.599-0.445-0.898-0.67c-0.286-0.215-0.573-0.43-0.859-0.65c-0.277-0.214-0.553-0.434-0.83-0.653    c-0.306-0.242-0.612-0.484-0.917-0.731c-0.254-0.207-0.507-0.419-0.76-0.629c-0.323-0.269-0.646-0.538-0.968-0.813    c-0.233-0.199-0.464-0.403-0.695-0.605c-0.341-0.298-0.681-0.596-1.02-0.901c-0.21-0.188-0.418-0.381-0.627-0.572    c-0.358-0.328-0.715-0.657-1.07-0.992c-0.19-0.179-0.378-0.362-0.567-0.543c-0.371-0.356-0.741-0.714-1.11-1.079    c-0.173-0.171-0.345-0.345-0.517-0.518c-0.382-0.384-0.764-0.771-1.143-1.165c-0.156-0.161-0.31-0.325-0.465-0.488    c-0.392-0.412-0.783-0.828-1.172-1.25c-0.143-0.155-0.285-0.312-0.427-0.469c-0.399-0.438-0.796-0.881-1.191-1.33    c-0.13-0.148-0.259-0.298-0.389-0.447c-0.402-0.462-0.803-0.929-1.201-1.402c-0.124-0.147-0.247-0.296-0.37-0.444    c-0.271-0.325-0.539-0.656-0.808-0.986c-0.169-0.246-0.375-0.543-0.646-0.935c-0.064-0.085-0.135-0.16-0.2-0.244    c-0.451-0.921-0.863-2.549-0.863-4.45C124.284,302.476,124.908,300.528,125.454,299.849z M466.047,435.254    c-28.969,22.467-62.941,34.082-102.115,34.082H148.081c-38.862,0.203-73.039-11.517-102.099-34.07    c-4.413-3.418-4.413-7.803-0.016-11.209c6.22-4.824,12.355-8.943,18.751-12.553c0.153,0.128,0.309,0.251,0.463,0.378    c0.618,0.513,1.24,1.021,1.864,1.524c0.291,0.235,0.584,0.466,0.877,0.699c0.654,0.519,1.31,1.035,1.97,1.543    c0.249,0.191,0.5,0.379,0.75,0.569c0.708,0.538,1.418,1.075,2.133,1.6c0.13,0.095,0.261,0.188,0.391,0.282    c2.591,1.891,5.226,3.699,7.904,5.42c0.068,0.044,0.135,0.089,0.203,0.133c0.725,0.464,1.455,0.917,2.186,1.368    c0.286,0.177,0.571,0.356,0.858,0.531c0.668,0.407,1.339,0.804,2.012,1.2c0.357,0.21,0.713,0.421,1.071,0.629    c0.641,0.371,1.284,0.735,1.929,1.096c0.396,0.222,0.792,0.442,1.189,0.66c0.627,0.344,1.256,0.684,1.887,1.019    c0.42,0.223,0.841,0.442,1.262,0.661c0.62,0.322,1.241,0.643,1.864,0.956c0.439,0.22,0.88,0.435,1.32,0.651    c0.615,0.302,1.23,0.605,1.848,0.898c0.449,0.213,0.9,0.418,1.351,0.627c0.619,0.287,1.237,0.576,1.859,0.855    c0.41,0.183,0.824,0.357,1.236,0.537c1.179,0.515,2.364,1.014,3.554,1.498c0.513,0.209,1.026,0.422,1.541,0.626    c0.569,0.224,1.141,0.438,1.712,0.656c0.534,0.203,1.068,0.409,1.604,0.606c0.569,0.209,1.141,0.411,1.712,0.614    c0.541,0.192,1.082,0.383,1.624,0.569c0.574,0.196,1.15,0.387,1.726,0.576c0.544,0.179,1.088,0.355,1.634,0.527    c0.58,0.183,1.161,0.363,1.744,0.54c0.541,0.164,1.084,0.324,1.627,0.481c0.592,0.172,1.183,0.343,1.777,0.508    c0.534,0.148,1.069,0.29,1.605,0.432c0.604,0.161,1.208,0.322,1.814,0.475c0.515,0.13,1.032,0.251,1.549,0.376    c0.632,0.152,1.262,0.308,1.896,0.452c0.383,0.087,0.768,0.165,1.152,0.25c1.498,0.328,3,0.634,4.508,0.917    c0.328,0.061,0.655,0.128,0.983,0.188c0.733,0.132,1.468,0.252,2.203,0.373c0.416,0.069,0.832,0.141,1.249,0.206    c0.726,0.114,1.454,0.217,2.183,0.32c0.424,0.06,0.848,0.121,1.273,0.177c0.735,0.097,1.47,0.187,2.207,0.273    c0.414,0.049,0.829,0.096,1.243,0.142c0.754,0.082,1.508,0.158,2.264,0.229c0.388,0.036,0.777,0.07,1.166,0.103    c0.784,0.067,1.57,0.13,2.356,0.185c0.338,0.023,0.677,0.043,1.016,0.064c0.839,0.053,1.678,0.103,2.519,0.141    c0.217,0.01,0.435,0.016,0.653,0.025c2.057,0.085,4.118,0.139,6.185,0.139H348.6c2.101,0,4.197-0.055,6.289-0.143    c0.171-0.007,0.343-0.012,0.515-0.02c0.884-0.04,1.767-0.093,2.649-0.149c0.289-0.018,0.578-0.035,0.866-0.055    c0.834-0.058,1.667-0.125,2.498-0.197c0.333-0.029,0.666-0.057,0.999-0.088c0.809-0.075,1.617-0.157,2.424-0.246    c0.35-0.038,0.699-0.079,1.049-0.119c0.798-0.093,1.595-0.19,2.391-0.296c0.35-0.047,0.699-0.097,1.048-0.146    c0.799-0.112,1.598-0.226,2.395-0.351c0.32-0.05,0.64-0.106,0.959-0.158c0.828-0.135,1.655-0.271,2.48-0.42    c0.142-0.026,0.283-0.055,0.425-0.081c1.865-0.343,3.723-0.721,5.573-1.134c0.194-0.043,0.388-0.082,0.582-0.126    c0.661-0.15,1.32-0.313,1.979-0.472c0.495-0.12,0.99-0.236,1.483-0.36c0.596-0.151,1.191-0.31,1.785-0.468    c0.556-0.148,1.113-0.295,1.667-0.449c0.557-0.155,1.112-0.315,1.666-0.476c0.596-0.173,1.192-0.348,1.786-0.528    c0.519-0.158,1.037-0.318,1.555-0.482c0.638-0.201,1.275-0.407,1.911-0.617c0.474-0.156,0.948-0.313,1.42-0.474    c0.698-0.238,1.394-0.483,2.089-0.732c0.41-0.146,0.82-0.29,1.228-0.44c0.814-0.298,1.624-0.607,2.433-0.919    c0.289-0.112,0.579-0.219,0.868-0.332c2.266-0.891,4.514-1.836,6.741-2.835c0.021-0.01,0.043-0.02,0.064-0.03    c1.077-0.484,2.149-0.982,3.216-1.492c0.186-0.089,0.37-0.18,0.555-0.27c0.906-0.437,1.809-0.881,2.707-1.336    c0.235-0.119,0.469-0.24,0.703-0.361c0.854-0.438,1.704-0.882,2.551-1.336c0.243-0.13,0.486-0.262,0.729-0.394    c0.843-0.458,1.683-0.924,2.519-1.398c0.231-0.131,0.461-0.261,0.691-0.393c0.869-0.498,1.733-1.006,2.593-1.521    c0.186-0.111,0.373-0.221,0.558-0.333c0.953-0.576,1.901-1.163,2.844-1.761c0.088-0.056,0.176-0.109,0.264-0.165    c3.137-1.997,6.217-4.11,9.233-6.339c0.237-0.175,0.472-0.355,0.709-0.532c0.726-0.542,1.449-1.089,2.168-1.645    c0.349-0.27,0.695-0.544,1.042-0.817c0.593-0.466,1.184-0.935,1.771-1.411c0.418-0.338,0.834-0.68,1.25-1.023    c0.257-0.212,0.517-0.419,0.773-0.633c6.396,3.61,12.528,7.726,18.74,12.545C470.445,427.463,470.445,431.847,466.047,435.254z" fill="#ffffff"/>
	</g>
</g>
</svg>