<svg xmlns="http://www.w3.org/2000/svg" version="1.0" width="512.000000pt" height="512.000000pt" viewBox="0 0 512.000000 512.000000" preserveAspectRatio="xMidYMid meet">

<g transform="translate(0.000000,512.000000) scale(0.100000,-0.100000)" fill="#ffffff" stroke="none">
<path d="M850 5111 c-76 -23 -125 -69 -189 -173 -88 -146 -191 -384 -191 -443 0 -32 41 -75 72 -75 43 0 65 27 93 112 34 104 123 284 178 363 64 90 80 91 256 25 l140 -52 -69 -138 c-86 -171 -144 -307 -206 -480 -26 -74 -49 -137 -51 -139 -6 -8 -249 113 -281 141 -18 15 -44 28 -58 28 -34 0 -74 -42 -74 -78 0 -50 65 -98 263 -191 97 -47 177 -88 177 -93 0 -4 -42 -99 -93 -210 -52 -112 -109 -236 -127 -276 -32 -71 -35 -74 -63 -68 -16 3 -40 0 -56 -9 -50 -26 -55 -73 -11 -116 l29 -30 -26 -64 -26 -64 -45 -3 c-35 -2 -49 -9 -65 -30 -27 -37 -10 -95 34 -110 7 -2 1 -28 -18 -73 l-30 -69 -40 2 c-34 3 -44 -1 -62 -24 -29 -37 -27 -71 9 -104 l29 -27 -26 -67 -26 -66 -38 6 c-32 5 -42 2 -63 -19 -15 -15 -26 -38 -26 -52 0 -25 39 -75 59 -75 6 0 1 -23 -10 -52 -12 -29 -25 -63 -30 -75 -7 -20 -12 -21 -36 -12 -50 19 -103 -18 -103 -74 0 -25 37 -67 59 -67 10 0 11 -8 6 -27 -4 -16 -9 -62 -12 -103 -4 -70 -3 -79 29 -140 21 -40 49 -76 74 -96 23 -17 156 -80 295 -140 235 -100 260 -108 330 -112 62 -3 85 0 127 18 72 31 130 97 177 203 l39 88 43 -7 c36 -5 45 -3 67 19 40 40 31 93 -18 119 l-24 13 30 67 30 66 45 -1 c36 -2 48 3 64 22 27 33 24 68 -11 102 l-29 30 26 64 27 65 41 0 c49 0 85 31 85 73 0 26 -25 60 -50 69 -9 3 -4 23 17 73 l30 69 40 -2 c34 -3 44 1 62 24 29 37 27 71 -9 104 l-29 27 26 67 26 66 38 -6 c32 -5 42 -2 63 19 39 39 31 92 -17 119 l-23 13 82 209 c45 116 86 217 91 225 9 14 22 11 104 -21 303 -120 361 -130 457 -82 60 30 91 66 167 194 105 178 205 464 205 585 0 59 -34 137 -76 177 -81 75 -1049 502 -1618 713 -175 65 -224 74 -286 56z m627 -350 c198 -79 748 -315 761 -326 5 -4 -90 -270 -135 -375 -68 -161 -184 -390 -198 -390 -23 0 -493 196 -759 316 l-124 56 38 111 c51 152 108 292 180 444 77 161 109 216 123 210 7 -3 58 -23 114 -46z m1036 -456 c160 -76 173 -89 163 -170 -18 -160 -188 -542 -269 -607 -35 -28 -86 -21 -218 28 -68 26 -126 48 -128 50 -2 2 32 79 77 172 87 179 163 364 208 505 16 48 29 87 30 87 0 0 62 -29 137 -65z m-1238 -540 c110 -48 261 -112 335 -142 74 -30 138 -58 142 -61 9 -9 -165 -455 -180 -460 -18 -6 -762 210 -762 221 0 30 242 538 254 533 6 -2 101 -43 211 -91z m-135 -702 c206 -58 376 -107 378 -108 1 -1 -11 -33 -27 -71 -16 -41 -34 -69 -42 -68 -16 1 -762 214 -767 219 -8 7 58 135 70 135 7 0 182 -48 388 -107z m-131 -280 c207 -58 379 -109 384 -113 10 -8 -45 -140 -58 -140 -27 1 -770 219 -770 227 0 18 50 133 59 133 5 0 178 -48 385 -107z m-105 -287 c203 -58 370 -107 373 -109 7 -8 -55 -137 -66 -137 -12 0 -753 210 -763 216 -4 3 0 20 8 39 8 19 21 51 29 71 11 27 19 34 32 30 10 -3 184 -53 387 -110z m-124 -282 c206 -59 376 -107 376 -108 7 -6 -62 -136 -72 -136 -16 0 -744 206 -750 213 -8 8 48 137 59 137 6 0 180 -48 387 -106z m-115 -285 c198 -56 361 -103 363 -104 2 -2 -14 -38 -36 -81 -26 -53 -49 -86 -72 -101 -59 -41 -93 -33 -356 78 -131 56 -249 109 -261 118 -47 34 -67 119 -41 176 7 16 17 24 27 21 9 -3 178 -51 376 -107z" fill="#ffffff"/>
<path d="M3497 4636 c-93 -35 -157 -137 -141 -226 22 -122 100 -180 244 -180 44 0 80 -3 80 -6 0 -3 -79 -297 -176 -652 l-177 -647 52 -158 c55 -165 63 -177 119 -177 22 0 56 23 149 105 67 58 123 111 126 118 2 6 82 298 177 647 95 349 174 636 176 638 1 2 37 -15 79 -37 60 -32 88 -41 126 -41 111 0 193 69 213 180 8 48 -16 127 -52 166 -84 92 -381 216 -619 259 -130 23 -328 29 -376 11z m381 -165 c52 -11 133 -32 180 -48 115 -37 301 -131 325 -164 17 -24 18 -30 6 -55 -21 -43 -61 -43 -134 0 -165 100 -453 176 -666 176 -58 0 -71 7 -83 47 -5 17 0 30 19 49 l27 27 117 -7 c64 -3 158 -15 209 -25z m35 -288 c32 -9 61 -22 64 -28 2 -7 -73 -295 -167 -639 l-171 -627 -41 -37 c-43 -39 -67 -56 -73 -50 -2 1 -11 33 -21 70 l-18 66 162 594 c89 326 167 610 173 631 11 42 12 43 92 20z" fill="#ffffff"/>
<path d="M4265 3276 c-126 -31 -193 -93 -287 -266 -71 -130 -82 -174 -50 -202 9 -8 45 -31 79 -49 35 -19 63 -38 63 -44 0 -5 -36 -73 -79 -150 l-78 -139 -41 2 c-30 3 -46 -2 -61 -17 -30 -30 -28 -85 3 -108 l24 -18 -22 -37 c-19 -34 -24 -37 -63 -36 -54 3 -83 -22 -83 -69 0 -24 7 -41 23 -55 l24 -21 -21 -38 c-19 -36 -24 -38 -56 -33 -79 13 -122 -77 -62 -128 26 -22 27 -27 24 -97 -3 -67 0 -82 28 -137 36 -75 77 -111 184 -164 68 -35 87 -40 145 -40 37 0 88 7 114 16 60 20 131 84 168 150 28 48 32 52 57 45 34 -10 65 1 86 31 22 31 20 52 -10 87 l-26 31 19 33 c16 26 25 32 49 30 68 -6 116 44 95 99 -5 15 -18 31 -28 37 -17 10 -17 12 4 48 19 35 25 38 58 35 85 -8 125 84 57 134 -17 13 -18 8 33 102 21 39 43 72 49 72 5 0 37 -16 72 -35 74 -42 116 -45 147 -11 12 13 54 85 92 160 l70 137 0 92 c0 78 -4 101 -27 148 -35 76 -88 132 -169 180 -108 63 -134 54 -200 -68 -35 -64 -54 -79 -88 -68 -37 11 -35 42 8 120 44 80 51 125 23 153 -29 29 -144 81 -201 92 -66 12 -82 12 -146 -4z m129 -145 c56 -13 61 -23 37 -69 -28 -55 -36 -112 -21 -158 55 -172 274 -195 365 -39 15 25 31 45 35 45 21 0 70 -55 90 -102 32 -76 24 -134 -35 -242 l-46 -84 -117 64 c-64 36 -228 126 -364 201 -137 75 -248 141 -248 146 0 21 81 154 113 185 31 30 98 60 137 61 8 0 32 -4 54 -8z m-13 -578 c87 -49 159 -92 159 -97 0 -22 -103 -197 -114 -193 -6 3 -90 28 -186 57 -96 29 -176 54 -178 55 -6 5 142 265 151 265 5 0 81 -39 168 -87z m-205 -370 c101 -31 184 -59 184 -62 0 -3 -10 -22 -23 -42 l-22 -36 -185 58 c-102 32 -186 58 -188 58 -5 2 39 81 45 81 3 0 88 -25 189 -57z m-118 -217 c95 -30 176 -56 179 -59 6 -7 -35 -77 -45 -77 -4 0 -87 25 -186 55 -98 30 -180 55 -182 55 -3 0 5 18 16 40 11 22 26 40 33 40 6 0 90 -24 185 -54z m-119 -217 c91 -28 169 -54 173 -58 12 -11 -29 -70 -64 -91 -55 -34 -120 -27 -199 20 -46 27 -71 50 -83 74 -18 39 -22 106 -5 106 7 0 86 -23 178 -51z" fill="#ffffff"/>
<path d="M2811 2545 c-178 -62 -431 -212 -612 -364 -189 -157 -376 -379 -405 -479 -58 -199 139 -386 335 -317 63 22 96 49 155 128 63 85 93 114 105 101 4 -5 261 -337 571 -739 309 -402 572 -735 584 -741 11 -6 105 -39 208 -74 274 -92 273 -93 252 195 -7 105 -16 202 -18 217 -5 26 -158 235 -198 271 -45 39 -118 8 -120 -50 -1 -26 16 -55 85 -145 l86 -113 10 -120 c6 -66 11 -123 11 -126 0 -4 -54 12 -120 35 l-120 41 -567 734 -567 734 45 40 c24 22 73 60 108 85 l64 46 21 -25 c12 -13 194 -249 405 -523 250 -324 393 -501 410 -508 50 -19 111 37 94 86 -4 14 -183 253 -398 531 -214 278 -391 509 -393 514 -1 4 41 27 95 50 54 23 115 53 135 67 45 29 95 112 104 173 21 142 -89 281 -237 296 -43 4 -70 0 -128 -20z m153 -140 c90 -43 85 -163 -9 -203 -330 -141 -599 -343 -785 -590 -29 -37 -61 -72 -73 -79 -59 -33 -138 1 -158 68 -12 37 -11 45 11 85 34 65 168 222 266 311 162 148 356 279 531 360 149 68 166 72 217 48z" fill="#ffffff"/>
<path d="M964 1282 c-143 -50 -237 -178 -251 -343 -5 -63 -4 -68 19 -83 13 -8 60 -23 103 -32 92 -19 107 -28 103 -62 -5 -41 -26 -47 -123 -32 -58 9 -95 10 -113 4 -40 -14 -55 -69 -56 -194 -1 -96 1 -110 27 -160 36 -70 98 -135 162 -167 43 -22 295 -83 344 -83 41 0 64 34 81 121 9 46 21 84 26 84 5 0 79 -13 165 -29 l157 -29 6 -38 c7 -43 36 -69 76 -69 27 0 70 36 70 58 0 13 30 14 70 3 19 -5 26 -15 30 -40 7 -47 50 -78 87 -65 15 5 37 23 48 39 19 29 22 30 63 22 37 -7 42 -11 42 -36 0 -64 83 -96 128 -48 12 13 22 31 22 40 0 10 8 17 20 17 36 0 126 40 166 74 101 86 151 296 100 418 -41 97 -130 168 -237 189 -54 11 -56 12 -65 52 -16 75 -101 89 -134 22 -15 -29 -17 -30 -57 -22 -36 7 -42 12 -48 40 -10 47 -32 67 -75 67 -40 0 -70 -24 -70 -54 0 -15 -6 -16 -32 -11 -64 13 -68 16 -68 44 0 64 -89 96 -129 45 -11 -14 -21 -30 -23 -35 -2 -7 -34 -5 -93 7 -50 9 -91 18 -93 20 -2 1 4 41 14 89 17 84 17 87 -3 113 -17 24 -36 30 -154 54 -157 32 -235 34 -305 10z m254 -152 c35 -8 52 -17 52 -27 0 -19 -150 -795 -156 -804 -5 -9 -178 27 -212 45 -66 34 -112 112 -112 188 l0 43 89 0 c84 0 91 2 128 31 76 60 102 157 64 239 -25 56 -72 92 -142 112 -32 9 -59 20 -59 24 0 42 68 124 125 151 44 21 125 20 223 -2z m386 -339 c3 -20 6 -110 6 -200 l0 -163 -27 5 c-16 3 -83 16 -150 28 -75 14 -123 28 -123 35 0 6 16 92 35 190 19 99 35 179 35 180 0 0 49 -8 109 -19 l109 -20 6 -36z m209 -7 l37 -7 0 -199 c0 -185 -1 -199 -17 -195 -10 3 -30 8 -45 11 l-27 6 -3 195 c-2 125 1 195 7 195 6 0 27 -3 48 -6z m273 -57 c1 -1 4 -89 7 -194 7 -215 12 -201 -62 -187 l-31 7 0 197 0 198 42 -10 c23 -5 43 -10 44 -11z m251 -58 c18 -11 41 -40 54 -66 22 -46 22 -48 7 -125 -9 -43 -26 -91 -37 -106 -19 -27 -96 -71 -106 -61 -2 3 -7 92 -11 198 l-7 193 34 -7 c19 -4 48 -16 66 -26z" fill="#ffffff"/>
</g>
</svg>