<svg xmlns="http://www.w3.org/2000/svg" version="1.0" width="512.000000pt" height="512.000000pt" viewBox="0 0 512.000000 512.000000" preserveAspectRatio="xMidYMid meet">
<rect width="100%" height="100%" fill="black"/>
<g transform="translate(0.000000,512.000000) scale(0.100000,-0.100000)" fill="#ffffff" stroke="none">
<path d="M2370 5113 c-559 -53 -1006 -230 -1417 -562 -795 -640 -1130 -1684 -858 -2674 81 -298 243 -626 427 -867 l27 -36 -260 -259 c-143 -143 -267 -272 -275 -287 -32 -60 -25 -70 154 -250 92 -93 177 -171 190 -175 51 -12 77 9 347 277 l270 269 75 -55 c262 -194 619 -357 938 -429 61 -14 121 -25 132 -25 31 0 90 62 90 94 0 35 -24 82 -47 91 -10 4 -85 24 -168 45 -349 88 -643 234 -924 459 -53 43 -70 51 -105 51 -41 0 -45 -4 -311 -270 l-270 -270 -72 72 -73 73 270 270 c328 329 314 294 186 459 -249 320 -408 697 -473 1116 -24 160 -24 509 1 670 161 1039 957 1835 1996 1996 161 25 510 25 670 1 419 -65 796 -224 1116 -473 165 -128 130 -142 459 186 l270 270 73 -73 72 -72 -270 -270 c-328 -328 -314 -294 -186 -459 249 -321 407 -695 472 -1116 25 -161 25 -499 0 -665 -80 -528 -318 -993 -699 -1361 -304 -295 -652 -488 -1072 -594 -185 -47 -182 -46 -200 -81 -24 -46 -19 -77 20 -116 33 -33 38 -35 82 -29 74 10 268 61 382 101 357 124 682 329 953 599 432 430 692 987 747 1596 56 617 -134 1276 -511 1770 l-27 36 260 259 c143 143 267 272 275 287 32 60 25 70 -153 250 -93 93 -178 171 -190 175 -52 12 -78 -9 -348 -277 l-270 -269 -75 55 c-439 322 -992 499 -1535 492 -71 0 -146 -3 -165 -5z" fill="#ffffff"/>
<path d="M2385 4714 c-477 -50 -870 -213 -1216 -502 -872 -731 -1022 -2029 -339 -2944 74 -99 107 -123 153 -114 47 9 2974 2936 2983 2983 9 47 -16 80 -114 153 -280 209 -618 351 -967 405 -97 15 -419 27 -500 19z m373 -205 c236 -25 462 -91 671 -195 122 -61 281 -158 281 -172 0 -4 -614 -621 -1365 -1372 l-1366 -1365 -20 25 c-38 49 -120 191 -169 292 -290 608 -242 1340 126 1901 112 170 237 311 399 447 389 328 937 494 1443 439z" fill="#ffffff"/>
<path d="M4120 3963 c-8 -3 -678 -667 -1488 -1477 -1193 -1193 -1473 -1477 -1478 -1503 -9 -46 16 -79 110 -150 651 -486 1515 -568 2241 -213 444 217 792 567 1006 1015 342 714 256 1578 -221 2217 -80 107 -116 130 -170 111z m80 -330 c28 -43 80 -135 114 -204 337 -679 254 -1479 -218 -2084 -68 -88 -229 -248 -321 -320 -407 -318 -906 -465 -1406 -414 -222 22 -452 86 -648 179 -99 48 -239 129 -291 170 l-25 19 1365 1366 c751 751 1368 1365 1372 1365 4 0 30 -35 58 -77z" fill="#ffffff"/>
<path d="M2511 186 c-87 -48 -50 -186 49 -186 51 0 100 49 100 99 0 75 -83 124 -149 87z" fill="#ffffff"/>
</g>
</svg>