<svg xmlns="http://www.w3.org/2000/svg" version="1.0" width="512.000000pt" height="512.000000pt" viewBox="0 0 512.000000 512.000000" preserveAspectRatio="xMidYMid meet">

<g transform="translate(0.000000,512.000000) scale(0.100000,-0.100000)" fill="#ffffff" stroke="none">
<path d="M2370 5114 c-19 -2 -78 -9 -130 -15 -791 -90 -1522 -586 -1924 -1305 -146 -262 -252 -588 -297 -914 -18 -125 -18 -515 0 -640 105 -762 511 -1408 1147 -1826 565 -372 1268 -499 1954 -352 194 41 538 169 598 222 32 28 30 78 -4 105 -36 28 -48 27 -145 -18 -203 -93 -432 -161 -664 -197 -90 -14 -177 -18 -345 -18 -253 0 -376 14 -595 69 -846 213 -1527 894 -1740 1740 -55 219 -69 342 -69 595 0 253 14 376 69 595 171 679 646 1261 1280 1570 167 81 290 126 462 170 225 56 338 69 593 69 253 0 376 -14 595 -69 849 -214 1530 -897 1741 -1745 184 -743 15 -1511 -463 -2105 -106 -131 -292 -311 -423 -408 -148 -109 -160 -121 -160 -151 0 -33 41 -76 73 -76 53 0 288 181 459 354 988 999 982 2610 -13 3605 -399 398 -879 639 -1449 726 -100 15 -472 28 -550 19z" fill="#ffffff"/>
<path d="M2320 4799 c-575 -63 -1110 -347 -1477 -784 -300 -358 -478 -776 -523 -1234 -114 -1153 666 -2203 1805 -2430 230 -45 548 -52 779 -16 937 145 1684 864 1865 1795 157 805 -141 1642 -766 2157 -326 268 -692 435 -1099 499 -119 18 -464 27 -584 13z m422 -181 c167 -81 255 -229 246 -417 -5 -112 -43 -197 -122 -277 -213 -212 -571 -149 -698 123 -57 121 -49 284 19 400 53 91 168 177 271 203 20 5 76 8 124 6 75 -3 97 -8 160 -38z m-647 -39 c-70 -84 -115 -220 -115 -351 0 -161 52 -288 167 -407 40 -41 71 -75 70 -76 -35 -9 -129 -45 -184 -70 l-73 -34 0 93 c0 168 -51 297 -165 412 -82 83 -197 145 -308 167 l-68 13 98 56 c155 89 314 156 483 203 120 33 128 33 95 -6z m1006 11 c165 -42 343 -116 502 -208 l98 -56 -81 -18 c-114 -24 -210 -77 -295 -162 -114 -115 -165 -243 -165 -412 l0 -93 -72 34 c-56 25 -150 61 -185 70 -1 1 30 34 70 76 114 118 167 247 167 407 0 131 -45 267 -115 351 -32 37 -28 37 76 11z m-1592 -439 c121 -38 205 -111 264 -231 30 -61 32 -70 32 -180 0 -109 -2 -119 -32 -183 -42 -89 -121 -168 -210 -210 -58 -27 -82 -32 -163 -35 -79 -3 -105 0 -155 18 -33 12 -79 24 -101 27 -35 4 -44 1 -58 -18 -23 -33 -20 -76 7 -102 12 -13 60 -35 106 -51 69 -22 102 -27 182 -27 l97 0 -33 -72 c-25 -55 -61 -149 -70 -184 -1 -1 -35 31 -77 71 -119 115 -244 166 -406 166 -131 0 -267 -45 -351 -115 -37 -32 -37 -28 -11 76 42 165 116 343 208 502 l57 98 12 -68 c7 -37 27 -97 45 -133 31 -61 35 -65 71 -68 21 -2 45 2 54 9 32 27 32 54 2 140 -52 151 -33 297 54 416 107 145 302 208 476 154z m2364 -1 c127 -39 239 -153 278 -282 17 -55 20 -87 17 -151 -9 -146 -71 -257 -187 -334 -86 -59 -152 -76 -265 -71 -76 3 -102 9 -159 35 -89 42 -168 121 -210 210 -30 64 -32 74 -32 183 0 110 2 119 32 180 17 36 48 84 67 106 106 124 295 175 459 124z m551 -622 c57 -108 129 -288 161 -408 32 -122 32 -128 -6 -95 -84 70 -220 115 -351 115 -161 0 -288 -52 -407 -167 -41 -40 -75 -71 -76 -70 -9 35 -45 129 -70 185 l-34 72 93 0 c109 0 180 17 278 66 147 74 269 240 299 403 l12 72 28 -45 c15 -24 48 -82 73 -128z m-1667 97 c440 -84 784 -428 868 -868 19 -101 19 -293 0 -394 -84 -440 -428 -784 -868 -868 -102 -20 -293 -19 -397 1 -381 72 -701 350 -826 718 -73 212 -73 480 0 692 125 367 440 642 822 718 95 19 303 19 401 1z m-1684 -672 c272 -128 335 -486 123 -699 -80 -79 -165 -117 -277 -122 -188 -9 -336 78 -418 248 -34 72 -36 80 -36 180 0 100 2 108 36 180 56 114 144 194 259 232 41 13 79 17 150 15 82 -2 104 -7 163 -34z m3284 19 c118 -37 205 -114 262 -232 34 -72 36 -80 36 -180 0 -100 -2 -108 -36 -180 -82 -170 -229 -257 -418 -248 -112 5 -197 43 -277 122 -231 232 -134 622 181 722 60 19 184 17 252 -4z m-2964 -809 c10 -31 33 -89 52 -130 l34 -73 -93 0 c-168 0 -297 -51 -411 -165 -86 -85 -139 -180 -163 -296 l-18 -80 -62 108 c-94 164 -190 411 -218 559 l-7 38 33 -27 c85 -72 220 -117 352 -117 162 0 290 52 401 164 40 40 74 73 77 74 3 1 13 -24 23 -55z m2427 -16 c120 -115 246 -167 408 -167 132 0 267 45 352 117 l33 27 -7 -38 c-28 -148 -124 -395 -218 -559 l-62 -108 -18 80 c-24 114 -78 211 -163 296 -113 113 -242 165 -411 165 l-93 0 34 73 c25 53 70 174 70 187 0 0 34 -33 75 -73z m-2257 -374 c89 -42 168 -121 210 -210 26 -57 32 -83 35 -159 5 -113 -12 -179 -71 -265 -78 -117 -188 -178 -334 -187 -259 -15 -466 192 -451 451 9 146 71 257 186 334 89 60 137 73 257 70 88 -2 108 -6 168 -34z m2358 0 c81 -40 138 -88 179 -153 193 -301 -30 -688 -384 -668 -145 9 -256 71 -333 187 -59 86 -76 152 -71 265 5 116 41 201 121 280 95 95 178 127 323 123 90 -2 107 -6 165 -34z m-1761 -379 c30 -10 56 -19 57 -19 1 -1 -30 -35 -70 -76 -115 -119 -167 -246 -167 -407 0 -132 45 -267 117 -352 l27 -33 -38 7 c-148 28 -395 124 -559 218 l-108 62 80 18 c198 42 357 179 431 373 18 46 24 87 28 176 l4 117 72 -33 c39 -18 96 -41 126 -51z m1033 -217 c73 -189 230 -323 428 -365 l80 -18 -108 -62 c-164 -94 -411 -190 -559 -218 l-38 -7 27 33 c72 85 117 220 117 352 0 161 -52 288 -167 407 -40 41 -71 75 -70 76 1 0 27 9 57 19 30 10 87 32 125 50 l70 32 6 -115 c5 -91 12 -131 32 -184z m-513 131 c118 -35 220 -123 274 -238 55 -117 47 -282 -20 -395 -40 -69 -114 -135 -194 -174 -72 -34 -80 -36 -180 -36 -100 0 -108 2 -180 36 -170 82 -257 229 -248 418 3 71 10 99 36 154 89 192 312 294 512 235z" fill="#ffffff"/>
<path d="M2438 3460 c-318 -51 -573 -241 -704 -526 -105 -227 -105 -521 0 -748 96 -209 275 -381 485 -466 198 -81 430 -87 636 -18 241 82 448 278 545 517 81 198 87 430 18 636 -97 286 -347 514 -640 585 -97 23 -258 33 -340 20z m308 -165 c82 -21 228 -95 294 -149 117 -97 209 -239 251 -392 32 -111 32 -277 0 -388 -74 -265 -272 -463 -537 -537 -111 -32 -277 -32 -388 0 -153 43 -291 131 -389 248 -57 69 -131 213 -154 303 -23 88 -23 272 0 360 23 88 96 233 151 300 115 139 295 242 471 270 76 11 224 4 301 -15z" fill="#ffffff"/>
</g>
</svg>