<svg xmlns="http://www.w3.org/2000/svg" version="1.0" width="512.000000pt" height="512.000000pt" viewBox="0 0 512.000000 512.000000" preserveAspectRatio="xMidYMid meet">

<g transform="translate(0.000000,512.000000) scale(0.100000,-0.100000)" fill="#ffffff" stroke="none">
<path d="M370 5109 c-91 -14 -202 -54 -293 -106 l-77 -45 0 -182 c0 -169 2 -185 23 -226 14 -30 36 -53 62 -67 38 -22 51 -23 268 -23 l227 0 0 -165 0 -165 -223 0 c-214 0 -226 -1 -267 -23 -30 -16 -51 -37 -67 -67 -22 -40 -23 -54 -23 -226 l0 -183 68 -40 c80 -46 154 -78 232 -97 77 -19 244 -28 308 -16 l54 10 -43 -44 -43 -44 207 -208 c114 -114 207 -212 207 -217 0 -6 -14 -45 -32 -87 l-32 -78 -298 0 -298 0 0 -580 0 -580 298 0 298 0 32 -77 c18 -43 32 -82 32 -88 0 -5 -93 -103 -207 -217 l-208 -208 408 -407 407 -408 208 208 c114 114 212 207 217 207 6 0 45 -14 88 -32 l77 -32 0 -298 0 -298 580 0 580 0 0 298 0 298 78 32 c42 18 81 32 87 32 5 0 103 -93 217 -207 l208 -208 407 408 408 407 -208 208 c-114 114 -207 212 -207 217 0 6 14 45 32 88 l32 77 298 0 298 0 0 580 0 580 -298 0 -298 0 -32 78 c-18 42 -32 81 -32 87 0 5 93 103 207 217 l207 208 -43 44 -43 44 54 -10 c64 -12 231 -3 308 16 78 19 152 51 232 97 l68 40 0 183 c0 172 -1 186 -23 226 -16 30 -37 51 -67 67 -41 22 -53 23 -267 23 l-223 0 0 165 0 165 228 0 c216 0 229 1 267 23 26 14 48 37 63 67 20 41 22 57 22 226 l0 182 -78 45 c-242 139 -529 151 -777 33 -124 -59 -252 -171 -321 -280 -29 -46 -29 -46 -85 -46 -60 0 -68 8 -69 65 0 36 -46 119 -90 163 -120 120 -288 130 -433 26 l-48 -35 -31 26 c-75 64 -177 92 -267 75 -64 -12 -132 -44 -163 -77 -12 -13 -27 -23 -33 -23 -6 0 -21 10 -33 23 -12 13 -42 33 -66 45 -120 60 -261 43 -365 -43 l-31 -27 -31 27 c-102 85 -254 104 -369 45 -76 -39 -169 -162 -170 -225 0 -11 -3 -30 -6 -42 -6 -23 -7 -23 -228 -23 l-221 0 -29 46 c-69 109 -197 221 -321 280 -139 67 -335 96 -485 73z m292 -178 c181 -46 317 -155 414 -327 l36 -64 269 0 269 0 0 -69 0 -70 -57 26 c-79 36 -200 38 -288 3 -70 -27 -157 -109 -192 -180 -24 -50 -43 -148 -43 -226 0 -62 -36 -123 -120 -204 -199 -190 -503 -239 -742 -118 l-38 18 0 120 0 120 285 0 285 0 0 330 0 330 -285 0 -285 0 0 126 0 125 57 25 c128 57 297 70 435 35z m4114 4 c34 -8 87 -25 118 -39 l56 -25 0 -125 0 -126 -285 0 -285 0 0 -330 0 -330 285 0 285 0 0 -121 0 -120 -52 -24 c-245 -112 -545 -59 -734 130 -45 45 -87 100 -114 148 l-42 77 -104 0 -104 0 0 245 0 245 104 0 104 0 36 64 c95 171 233 280 410 326 87 23 237 25 322 5z m-2717 -85 c22 -11 50 -36 62 -57 l24 -38 3 -518 c2 -335 -1 -531 -8 -556 -12 -47 -42 -87 -80 -106 -27 -14 -28 -13 -134 81 l-106 95 0 500 c0 537 -1 527 52 576 49 46 124 56 187 23z m508 -6 c15 -11 36 -33 47 -48 21 -27 21 -40 24 -559 2 -293 0 -546 -3 -564 -13 -72 -111 -133 -190 -119 -49 10 -112 68 -125 117 -7 25 -10 221 -8 561 l3 523 23 38 c34 53 84 78 150 74 32 -2 63 -11 79 -23z m503 -4 c18 -13 41 -41 51 -64 17 -38 19 -75 19 -556 0 -318 -4 -529 -10 -552 -13 -46 -77 -105 -125 -114 -71 -13 -149 26 -179 90 -14 30 -16 95 -16 564 0 352 4 540 11 559 14 37 47 72 84 89 44 21 125 13 165 -16z m488 3 c15 -11 37 -35 50 -53 l22 -33 0 -539 c0 -584 0 -583 -55 -626 -39 -31 -96 -46 -141 -37 -50 9 -108 67 -123 123 -8 29 -11 197 -9 559 3 498 4 519 23 551 11 19 38 45 60 58 33 20 50 24 93 21 32 -2 63 -12 80 -24z m-2018 -575 c26 -14 57 -41 75 -66 l30 -44 3 -239 3 -239 362 -322 c199 -177 372 -330 384 -341 26 -23 32 -20 93 53 l40 48 -177 158 c-98 87 -180 159 -183 162 -7 5 52 52 66 52 6 0 20 -10 32 -23 67 -71 216 -98 323 -58 31 12 74 36 95 55 l39 33 39 -33 c119 -102 303 -99 425 8 l33 30 32 -31 c80 -77 218 -103 326 -62 l50 19 0 -172 0 -171 -205 -205 -205 -205 0 -387 0 -388 -80 0 -80 0 0 -85 0 -85 80 0 80 0 0 -174 0 -173 -79 -52 c-91 -60 -208 -112 -324 -143 -70 -19 -107 -22 -257 -22 -150 0 -187 3 -257 22 -116 31 -233 83 -324 143 l-79 52 0 173 0 174 495 0 495 0 0 85 0 85 -495 0 -495 0 0 390 0 390 -304 266 c-247 215 -309 274 -328 312 -23 47 -23 48 -23 474 l0 426 30 43 c60 85 172 113 265 67z m2528 -631 l242 -242 -194 -194 -193 -193 42 -86 c23 -48 54 -121 69 -162 15 -41 32 -85 36 -97 l10 -23 270 0 270 0 0 -410 0 -410 -271 -2 -271 -3 -38 -100 c-20 -55 -55 -136 -76 -180 l-40 -80 193 -195 193 -195 -293 -293 -292 -292 -193 193 -192 193 -83 -40 c-45 -22 -127 -56 -182 -77 l-100 -37 -3 -271 -2 -271 -410 0 -410 0 -2 271 -3 271 -80 29 c-44 16 -126 50 -183 76 l-103 47 -192 -192 -192 -192 -293 293 -292 292 193 193 193 193 -40 82 c-21 45 -56 127 -76 182 l-38 100 -271 3 -271 2 0 410 0 410 270 0 270 0 10 23 c4 12 21 56 36 97 15 41 46 114 69 162 l42 86 -193 193 -194 194 128 128 127 127 6 -172 c6 -180 17 -238 62 -317 29 -52 56 -79 205 -208 72 -64 132 -122 132 -130 0 -7 -13 -39 -29 -71 -151 -302 -156 -688 -13 -1020 121 -280 374 -529 654 -644 552 -225 1177 -37 1505 455 248 372 278 850 78 1248 l-34 66 85 84 84 84 0 427 c0 337 3 428 13 428 6 0 121 -109 255 -243z m-518 -1000 c64 -159 74 -215 74 -407 0 -148 -3 -187 -21 -257 -37 -139 -116 -304 -187 -388 l-25 -30 -1 530 0 529 57 58 c31 32 60 54 64 50 4 -4 22 -42 39 -85z m-1823 -553 l2 -529 -25 30 c-71 84 -150 249 -187 388 -18 68 -21 110 -22 252 0 188 16 275 78 423 l30 72 61 -54 61 -54 2 -528z" fill="#ffffff"/>
</g>
</svg>