<svg xmlns="http://www.w3.org/2000/svg" version="1.0" width="512.000000pt" height="512.000000pt" viewBox="0 0 512.000000 512.000000" preserveAspectRatio="xMidYMid meet">

<g transform="translate(0.000000,512.000000) scale(0.100000,-0.100000)" fill="#ffffff" stroke="none">
<path d="M2310 4960 c-552 -60 -1061 -302 -1451 -690 -340 -338 -561 -748 -659 -1220 -114 -553 -24 -1147 248 -1635 519 -932 1553 -1420 2582 -1219 623 121 1177 488 1530 1014 410 610 519 1377 294 2073 -148 457 -425 857 -804 1158 -339 271 -716 435 -1156 504 -119 19 -465 27 -584 15z m461 -171 c57 -5 105 -12 107 -14 2 -2 -78 -141 -179 -308 l-183 -305 -80 -7 c-158 -13 -326 -54 -498 -120 -17 -7 -18 13 -18 333 l0 340 78 20 c247 64 527 87 773 61z m494 -103 c142 -47 334 -135 450 -205 92 -57 225 -152 225 -162 0 -4 -139 -85 -309 -179 l-308 -170 -87 39 c-149 69 -408 141 -506 141 -17 0 -30 2 -30 4 0 4 303 512 337 565 19 30 47 26 228 -33z m-1505 -389 l0 -354 -27 -14 c-114 -59 -352 -273 -438 -393 -22 -30 -42 -56 -45 -56 -7 0 -330 585 -330 597 0 16 189 193 276 260 89 68 187 131 288 188 69 38 255 125 269 125 4 0 7 -159 7 -353z m2422 -196 c166 -173 304 -374 409 -596 53 -113 59 -139 32 -131 -10 2 -176 17 -370 32 l-352 28 -60 81 c-72 98 -191 220 -289 300 -72 57 -73 59 -50 71 13 7 145 80 293 163 149 83 275 150 281 151 6 0 54 -44 106 -99z m-1335 -130 c213 -46 406 -134 574 -260 290 -219 480 -523 556 -891 24 -118 24 -402 0 -520 -76 -367 -267 -673 -555 -890 -170 -128 -361 -214 -580 -262 -131 -29 -415 -31 -542 -5 -589 122 -1027 551 -1151 1130 -82 383 15 819 253 1142 65 88 212 234 303 302 186 139 434 240 670 272 108 15 364 5 472 -18z m-1868 -339 l171 -308 -44 -100 c-70 -160 -136 -399 -136 -495 0 -16 -2 -29 -4 -29 -3 0 -134 78 -293 173 l-288 174 2 39 c4 101 146 456 252 629 57 92 152 225 162 225 4 0 84 -139 178 -308z m3396 -397 c165 -14 307 -25 316 -25 12 0 22 -26 42 -107 58 -234 80 -515 58 -738 -6 -65 -13 -121 -15 -123 -2 -2 -141 79 -309 179 l-305 182 -6 76 c-15 171 -56 339 -122 499 -19 45 -34 84 -34 86 0 2 17 2 38 0 20 -3 172 -16 337 -29z m-3720 -537 l303 -182 7 -80 c14 -162 63 -363 121 -494 13 -30 23 -56 22 -57 -2 -2 -157 0 -345 3 l-342 5 -17 56 c-59 201 -90 469 -80 696 6 150 15 235 23 235 3 0 141 -82 308 -182z m3792 -451 c207 -124 289 -179 291 -193 4 -29 -62 -242 -114 -364 -24 -58 -72 -156 -106 -218 -66 -117 -185 -292 -199 -292 -4 0 -84 139 -178 308 l-171 308 44 100 c70 160 136 399 136 495 0 16 2 29 4 29 3 0 134 -78 293 -173z m-3239 -544 c7 -10 41 -56 75 -103 70 -96 218 -246 301 -305 30 -22 56 -42 56 -45 0 -7 -585 -330 -597 -330 -18 0 -195 191 -270 290 -93 124 -174 258 -240 397 -29 61 -53 115 -53 119 0 4 161 4 358 1 324 -6 358 -8 370 -24z m2830 -357 c89 -161 162 -298 162 -303 0 -18 -193 -196 -298 -276 -56 -42 -145 -102 -198 -133 -92 -54 -275 -144 -321 -158 l-23 -7 0 353 1 353 87 57 c142 94 314 257 393 373 13 19 26 35 29 35 3 0 78 -132 168 -294z m-2131 -245 c152 -66 390 -131 484 -131 16 0 29 -2 29 -4 0 -3 -78 -134 -173 -293 l-174 -288 -39 2 c-56 2 -291 82 -418 142 -173 81 -441 251 -434 273 5 14 612 348 623 344 6 -3 51 -23 102 -45z m1293 -350 l0 -339 -77 -21 c-161 -43 -379 -71 -559 -71 -103 0 -314 16 -322 25 -2 2 78 141 179 308 l183 305 84 7 c120 10 291 47 402 88 52 19 98 35 103 36 4 0 7 -152 7 -338z" fill="#ffffff"/>
<path d="M2265 4535 c-50 -49 -15 -135 55 -135 41 0 80 39 80 80 0 41 -39 80 -80 80 -19 0 -40 -9 -55 -25z" fill="#ffffff"/>
<path d="M3263 4405 c-72 -51 -3 -168 79 -134 34 14 48 37 48 77 0 58 -76 93 -127 57z" fill="#ffffff"/>
<path d="M1343 4165 c-26 -18 -38 -67 -23 -94 40 -77 150 -53 150 32 0 63 -74 99 -127 62z" fill="#ffffff"/>
<path d="M4050 3782 c-34 -34 -37 -50 -15 -91 37 -72 145 -45 145 36 0 40 -27 71 -67 79 -27 5 -37 1 -63 -24z" fill="#ffffff"/>
<path d="M2420 3834 c-293 -38 -560 -167 -763 -371 -476 -475 -502 -1239 -60 -1743 495 -563 1356 -588 1875 -52 196 202 313 436 352 703 60 408 -69 797 -363 1090 -182 182 -382 293 -631 350 -83 19 -331 33 -410 23z m315 -169 c467 -75 826 -424 927 -900 16 -77 16 -333 0 -410 -98 -461 -436 -799 -897 -897 -77 -16 -333 -16 -410 0 -348 74 -626 281 -783 580 -173 331 -175 697 -7 1032 214 427 696 672 1170 595z" fill="#ffffff"/>
<path d="M2207 3474 c-21 -42 -37 -78 -35 -79 8 -7 129 -65 136 -65 8 0 86 150 80 155 -8 7 -129 65 -136 65 -4 0 -25 -34 -45 -76z" fill="#ffffff"/>
<path d="M2447 3474 c-21 -42 -37 -78 -35 -79 8 -7 129 -65 136 -65 8 0 86 150 80 155 -8 7 -129 65 -136 65 -4 0 -25 -34 -45 -76z" fill="#ffffff"/>
<path d="M2687 3474 c-21 -42 -37 -78 -35 -79 8 -7 129 -65 136 -65 8 0 86 150 80 155 -8 7 -129 65 -136 65 -4 0 -25 -34 -45 -76z" fill="#ffffff"/>
<path d="M2420 3185 c-176 -38 -351 -175 -429 -337 -94 -194 -94 -382 0 -576 101 -210 331 -352 569 -352 237 0 461 139 568 350 99 198 94 423 -15 610 -139 238 -421 363 -693 305z m255 -160 c238 -62 393 -291 358 -531 -30 -212 -196 -377 -409 -407 -329 -48 -612 266 -529 586 67 258 329 417 580 352z" fill="#ffffff"/>
<path d="M2501 2901 c-15 -16 -38 -45 -51 -65 -21 -29 -33 -36 -70 -41 -98 -13 -110 -16 -130 -42 -26 -34 -25 -55 6 -130 l27 -63 -27 -62 c-32 -77 -33 -99 -3 -133 18 -22 35 -28 96 -36 41 -5 75 -10 76 -11 80 -114 109 -137 159 -124 17 4 90 85 110 123 1 1 35 6 76 12 61 8 79 15 98 36 29 34 28 56 -4 133 l-27 62 27 63 c31 74 32 96 6 130 -21 26 -36 31 -125 42 -47 6 -53 10 -90 62 -22 30 -47 59 -57 64 -32 17 -69 10 -97 -20z m83 -216 c11 -16 33 -30 62 -37 39 -11 44 -15 38 -33 -9 -26 -9 -84 0 -111 7 -19 3 -22 -30 -29 -22 -4 -49 -19 -66 -37 l-28 -30 -28 30 c-17 18 -44 33 -66 37 -33 7 -37 10 -30 29 9 27 9 85 0 111 -6 18 -1 22 38 33 29 7 51 21 62 37 9 14 20 25 24 25 4 0 15 -11 24 -25z" fill="#ffffff"/>
<path d="M3226 3134 c-4 -33 -10 -69 -12 -80 -5 -20 1 -22 71 -33 42 -6 82 -11 89 -11 11 0 36 103 36 148 0 5 -24 12 -52 16 -29 3 -69 9 -89 12 l-36 6 -7 -58z" fill="#ffffff"/>
<path d="M1720 3085 l-55 -55 66 -66 66 -66 51 60 51 59 -62 61 -63 62 -54 -55z" fill="#ffffff"/>
<path d="M3307 2947 c-3 -8 -8 -43 -12 -79 l-7 -65 83 -11 c45 -7 85 -10 87 -7 6 6 21 91 21 126 1 25 -2 27 -74 38 -94 14 -92 14 -98 -2z" fill="#ffffff"/>
<path d="M1647 2852 l-58 -58 60 -57 c33 -31 63 -57 68 -57 5 0 32 24 61 53 l52 53 -63 62 -63 62 -57 -58z" fill="#ffffff"/>
<path d="M3371 2660 c-6 -39 -9 -75 -6 -79 2 -5 28 -11 58 -14 29 -4 67 -9 84 -13 l30 -6 7 59 c4 32 10 67 12 79 6 24 -4 27 -112 39 l-61 7 -12 -72z" fill="#ffffff"/>
<path d="M1570 2625 l-55 -55 63 -63 62 -62 57 58 58 57 -60 60 c-33 33 -62 60 -65 60 -3 0 -30 -25 -60 -55z" fill="#ffffff"/>
<path d="M3261 2099 c-24 -5 -46 -10 -48 -13 -2 -2 1 -33 7 -67 19 -116 13 -108 67 -98 27 5 62 11 80 14 19 3 30 11 28 18 -2 7 -9 45 -15 85 l-12 72 -31 -1 c-18 -1 -52 -5 -76 -10z" fill="#ffffff"/>
<path d="M1840 2033 c-36 -20 -66 -37 -68 -39 -2 -1 13 -34 32 -72 l36 -71 79 42 79 42 -34 67 c-19 38 -40 68 -47 68 -6 0 -41 -17 -77 -37z" fill="#ffffff"/>
<path d="M3073 1958 c-60 -11 -60 -10 -40 -118 7 -36 17 -64 22 -64 6 1 35 5 65 8 83 10 83 10 68 102 -15 90 -17 91 -115 72z" fill="#ffffff"/>
<path d="M2035 1893 c-38 -19 -71 -36 -72 -37 -1 -1 14 -34 35 -73 l37 -71 78 39 c42 22 77 41 77 44 0 16 -66 135 -75 135 -5 -1 -41 -17 -80 -37z" fill="#ffffff"/>
<path d="M2880 1818 c-30 -6 -56 -11 -57 -12 -3 -3 25 -168 29 -171 3 -3 101 11 135 20 12 3 20 11 18 18 -2 6 -9 45 -15 85 -13 81 -8 78 -110 60z" fill="#ffffff"/>
<path d="M2233 1752 c-40 -20 -73 -40 -73 -45 0 -5 16 -38 36 -73 l36 -64 78 42 79 42 -37 68 c-20 37 -39 68 -42 67 -3 0 -38 -17 -77 -37z" fill="#ffffff"/>
<path d="M725 3365 c-45 -44 -25 -117 35 -130 53 -12 108 41 96 91 -16 63 -87 84 -131 39z" fill="#ffffff"/>
<path d="M4425 2855 c-16 -15 -25 -36 -25 -55 0 -19 9 -40 25 -55 15 -16 36 -25 55 -25 19 0 40 9 55 25 16 15 25 36 25 55 0 19 -9 40 -25 55 -15 16 -36 25 -55 25 -19 0 -40 -9 -55 -25z" fill="#ffffff"/>
<path d="M585 2375 c-16 -15 -25 -36 -25 -55 0 -19 9 -40 25 -55 15 -16 36 -25 55 -25 19 0 40 9 55 25 16 15 25 36 25 55 0 19 -9 40 -25 55 -15 16 -36 25 -55 25 -19 0 -40 -9 -55 -25z" fill="#ffffff"/>
<path d="M4290 1862 c-34 -34 -37 -50 -15 -91 37 -72 145 -45 145 36 0 40 -27 71 -67 79 -27 5 -37 1 -63 -24z" fill="#ffffff"/>
<path d="M965 1445 c-45 -44 -25 -117 35 -130 53 -12 108 41 96 91 -16 63 -87 84 -131 39z" fill="#ffffff"/>
<path d="M3695 1088 c-51 -27 -61 -89 -22 -126 47 -44 121 -19 133 45 5 27 1 37 -24 63 -32 32 -54 36 -87 18z" fill="#ffffff"/>
<path d="M1775 848 c-51 -27 -61 -89 -22 -126 47 -44 121 -19 133 45 5 27 1 37 -24 63 -32 32 -54 36 -87 18z" fill="#ffffff"/>
<path d="M2745 695 c-50 -49 -15 -135 55 -135 41 0 80 39 80 80 0 41 -39 80 -80 80 -19 0 -40 -9 -55 -25z" fill="#ffffff"/>
</g>
</svg>